<svg xmlns="http://www.w3.org/2000/svg" viewBox="0 0 16 16">
  <path d="M4.7,4.7V2.9c0-0.4,0.3-0.7,0.7-0.7s0.7,0.3,0.7,0.7c0,0,0,0,0,0v1.8c0,0.4-0.3,0.7-0.7,0.7S4.7,5.1,4.7,4.7
    C4.7,4.7,4.7,4.7,4.7,4.7z M10.6,5.4c0.4,0,0.7-0.3,0.7-0.7V2.9c0-0.4-0.3-0.7-0.7-0.7c-0.4,0-0.7,0.3-0.7,0.7v1.8
    C9.9,5.1,10.3,5.4,10.6,5.4z M14.4,3.8v9.4c0,0.3-0.2,0.6-0.6,0.6c0,0,0,0,0,0H2.2c-0.3,0-0.6-0.2-0.6-0.6c0,0,0,0,0,0V3.8
    c0-0.3,0.2-0.6,0.6-0.6h1.3C3.8,3.2,4,3.4,4,3.7S3.8,4.3,3.5,4.3c0,0,0,0,0,0H2.7v2.4h10.6V4.3h-0.7c-0.3,0-0.6-0.2-0.6-0.5
    s0.2-0.6,0.5-0.6c0,0,0,0,0,0h1.3C14.2,3.2,14.4,3.5,14.4,3.8z M13.3,12.7v-5H2.7v5H13.3z M7.1,4.3h1.8c0.3,0,0.6-0.2,0.6-0.5
    S9.2,3.2,8.9,3.2c0,0,0,0,0,0H7.1c-0.3,0-0.5,0.3-0.5,0.6C6.6,4.1,6.8,4.3,7.1,4.3z" stroke="none"/>
</svg>
