<svg xmlns="http://www.w3.org/2000/svg" width="32" height="32" viewBox="0 0 32 32"><defs><style>.icon-new-cogs{fill:none;}.icon-new-cogs-b{fill:inherit;}</style></defs><rect class="icon-new-cogs" width="32" height="32"/><path class="icon-new-cogs-b" d="M22938.859,17375.883a.269.269,0,0,1-.258-.215l-.191-1.359a3.411,3.411,0,0,1-.875-.512l-1.277.52a.262.262,0,0,1-.32-.111l-1.039-1.785a.272.272,0,0,1,.051-.338l1.1-.855a2.965,2.965,0,0,1-.035-.5,3.158,3.158,0,0,1,.035-.512l-1.1-.848a.268.268,0,0,1-.051-.338l1.039-1.783a.256.256,0,0,1,.32-.121l1.277.527a3.758,3.758,0,0,1,.875-.51l.191-1.359a.253.253,0,0,1,.258-.217h2.059a.244.244,0,0,1,.242.227l.191,1.355a3.588,3.588,0,0,1,.875.512l1.277-.518a.262.262,0,0,1,.32.113l1.035,1.781a.276.276,0,0,1-.047.338l-1.1.85a2.755,2.755,0,0,1,.047.512,3.636,3.636,0,0,1-.047.51l1.105.846a.256.256,0,0,1,.059.33l-1.035,1.785a.276.276,0,0,1-.328.111l-1.289-.52a3.706,3.706,0,0,1-.859.512l-.2,1.359a.251.251,0,0,1-.25.215Zm-.527-5.158a1.553,1.553,0,1,0,1.547-1.559A1.554,1.554,0,0,0,22938.332,17370.725Zm-11.105-2.6a.412.412,0,0,1-.4-.338l-.3-2.129a5.825,5.825,0,0,1-1.355-.8l-2.008.813a.407.407,0,0,1-.492-.18l-1.609-2.781a.414.414,0,0,1,.086-.525l1.707-1.334a5.95,5.95,0,0,1-.055-.795,5.725,5.725,0,0,1,.055-.781l-1.707-1.34a.406.406,0,0,1-.086-.52l1.609-2.787a.414.414,0,0,1,.492-.174l2.008.814a5.842,5.842,0,0,1,1.355-.8l.3-2.129a.408.408,0,0,1,.4-.346h3.223a.42.42,0,0,1,.4.328l.3,2.129a6.464,6.464,0,0,1,1.359.8l2-.8a.4.4,0,0,1,.492.172l1.617,2.787a.407.407,0,0,1-.1.521l-1.7,1.338a6.735,6.735,0,0,1,.059.791,6.429,6.429,0,0,1-.059.787l1.7,1.334a.405.405,0,0,1,.1.52l-1.617,2.787a.4.4,0,0,1-.492.174l-2-.809a6.417,6.417,0,0,1-1.359.8l-.3,2.129a.422.422,0,0,1-.4.348Zm-.7-8.068a2.307,2.307,0,1,0,2.3-2.3A2.308,2.308,0,0,0,22926.531,17360.061Z" transform="translate(-22917 -17348)"/></svg>
