<svg xmlns="http://www.w3.org/2000/svg" width="24" height="24" viewBox="0 0 24 24"><rect class="a_building" width="24" height="24"/><path class="b_building" d="M21818.6,16377.825a.616.616,0,0,1-.6-.6v-15.62a.616.616,0,0,1,.6-.6h12.016a.616.616,0,0,1,.6.6v15.62a.616.616,0,0,1-.6.6Zm7.512-3.605a.279.279,0,0,1,.209.088.3.3,0,0,1,.092.214v2.1h3.605v-14.42h-10.82v14.42h3.605v-2.1a.294.294,0,0,1,.092-.214.279.279,0,0,1,.209-.088Zm1.8,0a.307.307,0,0,1-.213-.087.29.29,0,0,1-.088-.214v-.6a.276.276,0,0,1,.088-.208.285.285,0,0,1,.213-.088h.6a.288.288,0,0,1,.213.088.276.276,0,0,1,.088.208v.6a.29.29,0,0,1-.088.214.311.311,0,0,1-.213.087Zm-7.211,0a.311.311,0,0,1-.213-.087.29.29,0,0,1-.088-.214v-.6a.276.276,0,0,1,.088-.208.288.288,0,0,1,.213-.088h.6a.285.285,0,0,1,.213.088.276.276,0,0,1,.088.208v.6a.29.29,0,0,1-.088.214.307.307,0,0,1-.213.087Zm7.211-2.405a.3.3,0,0,1-.3-.3v-.6a.3.3,0,0,1,.3-.3h.6a.3.3,0,0,1,.3.3v.6a.3.3,0,0,1-.3.3Zm-2.406,0a.3.3,0,0,1-.3-.3v-.6a.3.3,0,0,1,.3-.3h.6a.288.288,0,0,1,.209.088.292.292,0,0,1,.086.213v.6a.3.3,0,0,1-.086.214.291.291,0,0,1-.209.087Zm-2.4,0a.282.282,0,0,1-.209-.087.294.294,0,0,1-.092-.214v-.6a.29.29,0,0,1,.092-.213.279.279,0,0,1,.209-.088h.6a.288.288,0,0,1,.213.088.31.31,0,0,1,.088.213v.6a.314.314,0,0,1-.088.214.29.29,0,0,1-.213.087Zm-2.4,0a.3.3,0,0,1-.3-.3v-.6a.3.3,0,0,1,.3-.3h.6a.3.3,0,0,1,.3.3v.6a.3.3,0,0,1-.3.3Zm7.211-2.4a.293.293,0,0,1-.213-.093.268.268,0,0,1-.088-.208v-.6a.268.268,0,0,1,.088-.208.289.289,0,0,1,.213-.093h.6a.292.292,0,0,1,.213.093.268.268,0,0,1,.088.208v.6a.268.268,0,0,1-.088.208.3.3,0,0,1-.213.093Zm-2.406,0a.3.3,0,0,1-.213-.093.268.268,0,0,1-.088-.208v-.6a.268.268,0,0,1,.088-.208.292.292,0,0,1,.213-.093h.6a.294.294,0,0,1,.209.093.273.273,0,0,1,.086.208v.6a.273.273,0,0,1-.086.208.3.3,0,0,1-.209.093Zm-2.4,0a.288.288,0,0,1-.209-.093.272.272,0,0,1-.092-.208v-.6a.272.272,0,0,1,.092-.208.284.284,0,0,1,.209-.093h.6a.309.309,0,0,1,.3.3v.6a.29.29,0,0,1-.088.208.3.3,0,0,1-.213.093Zm-2.4,0a.3.3,0,0,1-.213-.093.268.268,0,0,1-.088-.208v-.6a.268.268,0,0,1,.088-.208.292.292,0,0,1,.213-.093h.6a.289.289,0,0,1,.213.093.268.268,0,0,1,.088.208v.6a.268.268,0,0,1-.088.208.293.293,0,0,1-.213.093Zm7.211-2.405a.308.308,0,0,1-.213-.088.286.286,0,0,1-.088-.213v-.6a.277.277,0,0,1,.088-.208.289.289,0,0,1,.213-.093h.6a.292.292,0,0,1,.213.093.268.268,0,0,1,.088.208v.6a.286.286,0,0,1-.088.213.312.312,0,0,1-.213.088Zm-2.406,0a.312.312,0,0,1-.213-.088.286.286,0,0,1-.088-.213v-.6a.277.277,0,0,1,.088-.208.292.292,0,0,1,.213-.093h.6a.294.294,0,0,1,.209.093.273.273,0,0,1,.086.208v.6a.292.292,0,0,1-.086.213.314.314,0,0,1-.209.088Zm-2.4,0a.3.3,0,0,1-.209-.088.29.29,0,0,1-.092-.213v-.6a.281.281,0,0,1,.092-.208.284.284,0,0,1,.209-.093h.6a.309.309,0,0,1,.3.3v.6a.3.3,0,0,1-.3.3Zm-2.4,0a.312.312,0,0,1-.213-.088.286.286,0,0,1-.088-.213v-.6a.277.277,0,0,1,.088-.208.292.292,0,0,1,.213-.093h.6a.289.289,0,0,1,.213.093.268.268,0,0,1,.088.208v.6a.286.286,0,0,1-.088.213.308.308,0,0,1-.213.088Zm7.211-2.405a.3.3,0,0,1-.3-.3v-.6a.3.3,0,0,1,.3-.3h.6a.3.3,0,0,1,.3.3v.6a.3.3,0,0,1-.3.3Zm-2.406,0a.3.3,0,0,1-.3-.3v-.6a.3.3,0,0,1,.3-.3h.6a.292.292,0,0,1,.209.088.3.3,0,0,1,.086.214v.6a.292.292,0,0,1-.086.213.288.288,0,0,1-.209.088Zm-2.4,0a.279.279,0,0,1-.209-.088.29.29,0,0,1-.092-.213v-.6a.294.294,0,0,1,.092-.214.283.283,0,0,1,.209-.088h.6a.291.291,0,0,1,.213.088.314.314,0,0,1,.088.214v.6a.31.31,0,0,1-.088.213.288.288,0,0,1-.213.088Zm-2.4,0a.3.3,0,0,1-.3-.3v-.6a.3.3,0,0,1,.3-.3h.6a.3.3,0,0,1,.3.3v.6a.3.3,0,0,1-.3.3Z" transform="translate(-21812.666 -16357.371)"/></svg>