<svg xmlns="http://www.w3.org/2000/svg" viewBox="0 0 910 512">
  <g transform="translate(-250,650) scale(0.15,-0.15)" stroke="none">
    <path d="M2460 5104 c-192 -50 -369 -213 -441 -406 l-24 -63 -3 -2044 c-2
    -1821 -1 -2051 13 -2105 65 -253 292 -450 544 -474 99 -9 3974 -7 4026 2 219
    39 411 198 489 406 13 36 27 87 31 114 9 56 13 1706 5 1706 -3 0 -148 -143
    -323 -318 l-317 -318 0 -479 0 -480 -1915 3 -1915 2 0 1915 0 1915 958 2 957
    3 3 318 2 317 -1017 -1 c-852 0 -1027 -3 -1073 -15z"/>
    <path d="M5248 5084 c-53 -28 -53 -28 -58 -494 l-5 -435 -96 -7 c-635 -49
    -1229 -625 -1561 -1513 -147 -394 -246 -874 -263 -1285 -3 -69 -8 -163 -10
    -210 -3 -48 -2 -80 3 -75 5 6 24 48 42 95 98 253 223 494 374 725 393 598 905
    954 1423 991 l92 7 3 -441 c3 -427 4 -441 24 -468 25 -34 64 -48 110 -39 27 5
    236 167 872 677 460 368 846 684 856 700 60 93 58 315 -2 409 -21 32 -1671
    1355 -1708 1369 -35 14 -64 12 -96 -6z"/>
  </g>
</svg>
