<svg width="14" height="14" viewBox="0 0 14 14" fill="none" xmlns="http://www.w3.org/2000/svg">
<path fill-rule="evenodd" clip-rule="evenodd" d="M8.49999 9.62793V9.03759L8.30078 8.82666C7.44238 9.56201 6.33349 10.0015 5.12646 10.0015C2.43554 10.0015 0.25 7.82178 0.25 5.12646C0.25 2.43555 2.43554 0.251465 5.12646 0.251465C7.81738 0.251465 10.0015 2.43555 10.0015 5.12646C10.0015 6.3335 9.56054 7.44384 8.82519 8.30225L9.0332 8.5044H9.62646L13.3706 12.2529L12.2515 13.3721L8.49999 9.62793ZM1.75292 5.12646C1.75292 6.99414 3.25878 8.5044 5.12646 8.5044C6.99267 8.5044 8.49999 6.99414 8.49999 5.12646C8.49999 3.25879 6.99267 1.75293 5.12646 1.75293C3.25878 1.75293 1.75292 3.25878 1.75292 5.12646ZM4.75145 7.00293V5.50146H3.24999V4.75293H4.75145V3.25439H5.49999V4.75293H7.00293V5.50146H5.49999V7.00293H4.75145Z" fill="#959595"/>
</svg>
