<svg xmlns="http://www.w3.org/2000/svg" viewBox="0 0 512 512">
  <g transform="translate(0,512) scale(0.1,-0.1)" stroke="none">
  <path d="M1615 3821 c-1298 -564 -1274 -553 -1228 -592 10 -9 396 -238 858
  -509 794 -467 843 -494 895 -498 55 -4 64 0 785 331 402 184 983 450 1293 592
  584 268 593 272 543 307 -10 7 -422 213 -915 457 -723 358 -905 445 -943 448
  -45 4 -128 -31 -1288 -536z m1943 -62 c359 -177 649 -326 645 -330 -15 -13
  -2045 -939 -2051 -936 -137 74 -1241 732 -1235 737 4 4 424 187 933 408 509
  220 950 412 980 426 30 14 60 23 65 22 6 -2 304 -149 663 -327z"/>
  <path d="M4231 2948 l-135 -71 59 -29 58 -30 -1024 -469 c-563 -258 -1031
  -468 -1041 -467 -20 4 -1238 720 -1238 729 0 3 29 18 65 34 36 15 63 31 60 35
  -9 14 -255 150 -272 150 -28 0 -391 -161 -397 -176 -3 -7 3 -22 12 -33 18 -21
  1650 -983 1711 -1008 21 -9 51 -13 74 -10 21 3 616 270 1323 594 1232 564
  1284 589 1282 613 -3 22 -28 38 -183 117 -99 51 -189 92 -200 92 -11 1 -80
  -31 -154 -71z"/>
  <path d="M4238 2332 c-70 -37 -128 -70 -128 -74 0 -4 23 -19 51 -34 28 -14 49
  -27 47 -29 -9 -9 -2040 -935 -2050 -935 -13 0 -1247 722 -1248 730 0 3 28 17
  62 32 34 14 64 30 65 35 4 11 -248 153 -271 153 -21 0 -366 -148 -385 -165 -7
  -7 -10 -21 -7 -32 4 -12 315 -201 864 -524 854 -502 857 -504 912 -504 51 1
  143 41 1335 588 704 324 1284 592 1288 597 24 23 -11 49 -188 138 -102 50
  -193 92 -203 91 -9 0 -74 -31 -144 -67z"/>
  </g>
</svg>
