<svg xmlns="http://www.w3.org/2000/svg" width="24" height="24" viewBox="0 0 24 24"><defs><style>.a{fill:none;}.b{fill:#7e7e7e;}</style></defs><path class="a" d="M0,0H24V24H0Z"/><g transform="translate(2.818 2.306)"><path class="b" d="M16.165,12.95h1.488v1.488H16.165Zm0-2.975h1.488v1.488H16.165Zm0-2.975h1.488V8.488H16.165ZM13.74,7l.937.625V7Z" transform="translate(-3.264 -1.025)"/><path class="b" d="M10,3V4.123l1.488.989V4.488h6.694V14.9H15.206v1.488h4.463V3Z" transform="translate(-2.306)"/><path class="b" d="M6.333,5.7l5.08,3.384v8H1V9.255Zm1.361,9.892H9.925V9.761L6.333,7.478,2.488,9.925v5.668H4.719V11.13H7.694Z" transform="translate(0 -0.692)"/></g></svg>