<svg xmlns="http://www.w3.org/2000/svg" width="24" height="24" viewBox="0 0 24 24">
  <rect width="24" height="24" fill="none" stroke="none"/>
  <path d="M20.5,24.278l-1.592-2.918L18.3,22.4,16.05,21.094V16.47l-4.018-2.331V11.524h1.194L11.5,8.7,9.777,11.543h1.194v2.615L6.953,16.47v4.643L4.7,22.4l-.606-1.042L2.5,24.278l3.316.076L5.21,23.311l2.274-1.289L11.5,24.334l4.018-2.312,2.255,1.308-.587,1.023ZM8.015,17.683l2.956,1.706V22.8L8.015,21.094Zm3.487.8L8.545,16.773,11.5,15.067l2.956,1.706Zm.531,4.321V19.388l2.956-1.706v3.411Z" transform="translate(0.695 -4.662)" fill="#f9f8ff"/>
</svg>