<svg width="25" height="25" viewBox="0 0 25 25" fill="none" xmlns="http://www.w3.org/2000/svg">
  <g id=".Plane Icon">
    <mask id="mask0_174_8670" style="mask-type:alpha" maskUnits="userSpaceOnUse" x="0" y="0" width="25" height="25">
      <rect id="Bounding box" x="24.125" y="0.910767" width="24" height="24" transform="rotate(90 24.125 0.910767)" fill="#D9D9D9"/>
    </mask>
    <g mask="url(#mask0_174_8670)">
      <path id="flight" d="M8.94706 22.4156V21.2425L10.8894 19.8002V14.1175L2.62976 16.5598V15.0214L10.8894 10.1368V4.64636C10.8894 4.30022 11.0096 4.00696 11.2499 3.76658C11.4903 3.5262 11.7836 3.40601 12.1297 3.40601C12.4759 3.40601 12.7692 3.5262 13.0095 3.76658C13.2499 4.00696 13.3701 4.30022 13.3701 4.64636V10.1368L21.6297 15.0214V16.5598L13.3701 14.1175V19.781L15.3124 21.2425V22.4156L12.1297 21.4925L8.94706 22.4156Z" fill="#919191"/>
    </g>
  </g>
</svg>
