<svg xmlns="http://www.w3.org/2000/svg" width="19.254" height="18.827" viewBox="0 0 19.254 18.827">
  <g id="Group_17069" data-name="Group 17069" transform="translate(0 1.427)" opacity="0.5">
    <g id="Group_13948" data-name="Group 13948" transform="translate(0 -1.427)">
      <path id="Path_9528" data-name="Path 9528" d="M19.987,10.71h-.261a.531.531,0,0,0-.553.507v2.149H20.54V11.217A.532.532,0,0,0,19.987,10.71Z" transform="translate(-12.062 -6.952)" fill="#fff" stroke="none"/>
      <path id="Path_9529" data-name="Path 9529" d="M29.869,10.71h-.261a.532.532,0,0,0-.553.507v2.149h1.368V11.217A.533.533,0,0,0,29.869,10.71Z" transform="translate(-18.278 -6.952)" fill="#fff" stroke="none"/>
      <path id="Path_9530" data-name="Path 9530" d="M9.628.577a9.629,9.629,0,0,0-2.993,18.78.927.927,0,1,0,.576-1.763,7.805,7.805,0,0,1-3.092-1.907A7.773,7.773,0,1,1,17.4,10.2a7.721,7.721,0,0,1-2.275,5.5,5.989,5.989,0,0,1-2.8,1.522,1.272,1.272,0,0,1-1.015-.427,5.386,5.386,0,0,1-.8-3.279A3.043,3.043,0,0,0,13.4,10.48V7.594H5.857V10.48a3.044,3.044,0,0,0,2.8,3.033,7,7,0,0,0,1.276,4.519,3.128,3.128,0,0,0,2.4,1.045c1.794,0,3.836-1.812,4.062-2.018l.03-.028A9.629,9.629,0,0,0,9.628.577Z" transform="translate(0 -0.577)" fill="#fff" stroke="none"/>
    </g>
  </g>
</svg>
