<svg width="19" height="18" viewBox="0 0 19 18" fill="none" xmlns="http://www.w3.org/2000/svg">
<path fill-rule="evenodd" clip-rule="evenodd" d="M8.97258 3.00055C5.65912 3.04489 3.00919 5.76719 3.05328 9.08074C3.09762 12.3929 5.81969 15.0435 9.13302 14.9994C12.4458 14.9548 15.0963 12.2325 15.0522 8.91925C15.0078 5.60688 12.2857 2.95633 8.97258 3.00055ZM8.95485 12.6522L8.92172 12.6516C8.41146 12.6365 8.05171 12.2606 8.06619 11.7579C8.08041 11.2638 8.44889 10.9051 8.94233 10.9051L8.97194 10.9056C9.49642 10.9212 9.85212 11.2933 9.83738 11.8105C9.82277 12.306 9.46002 12.6522 8.95485 12.6522ZM11.1012 8.39231C10.9812 8.56278 10.7173 8.77448 10.3848 9.03352L10.0187 9.2863C9.81768 9.44257 9.69637 9.58956 9.65085 9.73421C9.61497 9.84808 9.59736 9.87821 9.59424 10.1099L9.59371 10.1687H8.1957L8.19975 10.0504C8.21683 9.56412 8.22883 9.27808 8.43036 9.04174C8.74653 8.67052 9.44397 8.22143 9.47358 8.20239C9.5735 8.12713 9.65776 8.04143 9.7205 7.94987C9.86724 7.74756 9.93219 7.5883 9.93219 7.43179C9.93219 7.21462 9.86776 7.01374 9.74032 6.83492C9.61784 6.66235 9.38514 6.57496 9.04862 6.57496C8.71483 6.57496 8.48631 6.68088 8.34961 6.89818C8.209 7.12161 8.13792 7.35626 8.13792 7.596V7.65561H6.69647L6.69908 7.59339C6.73626 6.71048 7.05138 6.07474 7.63535 5.70379C8.00226 5.46757 8.45879 5.34783 8.99149 5.34783C9.6888 5.34783 10.2775 5.51726 10.7409 5.85144C11.2105 6.19005 11.4486 6.69718 11.4486 7.35874C11.4486 7.72878 11.3318 8.0764 11.1012 8.39231Z" fill="#7E7E7E"/>
</svg>
