<svg xmlns="http://www.w3.org/2000/svg" viewBox="0 0 24 24"><path class="b" d="M6.053,3.621A1.621,1.621,0,0,1,7.674,2h4.864a1.621,1.621,0,0,1,1.621,1.621V5.242H17.4a.811.811,0,1,1,0,1.621h-.866l-.7,9.843a1.621,1.621,0,0,1-1.617,1.506H6A1.621,1.621,0,0,1,4.38,16.706l-.7-9.843H2.811a.811.811,0,1,1,0-1.621H6.053ZM7.674,5.242h4.864V3.621H7.674ZM5.3,6.864,6,16.591h8.218l.695-9.727ZM8.485,8.485A.811.811,0,0,1,9.3,9.3v4.864a.811.811,0,1,1-1.621,0V9.3A.811.811,0,0,1,8.485,8.485Zm3.242,0a.811.811,0,0,1,.811.811v4.864a.811.811,0,0,1-1.621,0V9.3A.811.811,0,0,1,11.727,8.485Z" transform="translate(2 2)"/></svg>