<svg xmlns="http://www.w3.org/2000/svg" width="24" height="24" viewBox="0 0 24 24"><path class="b" d="M15.321,16.5H1.178A1.18,1.18,0,0,1,0,15.321V1.178A1.18,1.18,0,0,1,1.178,0H13.2l1.65,1.65L16.5,3.3V15.321A1.181,1.181,0,0,1,15.321,16.5ZM4.714,9.429h7.072a1.18,1.18,0,0,1,1.178,1.178v4.125h1.768V4.032L13.6,2.9,12.468,1.768h-.682V5.893a1.18,1.18,0,0,1-1.178,1.178H4.714A1.18,1.18,0,0,1,3.535,5.893V1.768H1.768V14.732H3.535V10.607A1.18,1.18,0,0,1,4.714,9.429ZM5.3,11.2h0v3.535H11.2V11.2H5.3Zm0-9.429h0V5.3h4.714V1.768H9.429v.589a1.178,1.178,0,0,1-2.357,0V1.768H5.3Z" transform="translate(4 4)" stroke="none"/></svg>