<svg xmlns="http://www.w3.org/2000/svg"><defs><style>.a_lowToHigh{fill:#383838;}.b_lowToHigh{fill:#847cdb;stroke:#847cdb}.c_lowToHigh{fill:none;stroke:#847cdb;}</style></defs><g transform="translate(24) rotate(90)"><path class="a_lowToHigh" d="M3,0H21a3,3,0,0,1,3,3V21a3,3,0,0,1-3,3H3a3,3,0,0,1-3-3V3A3,3,0,0,1,3,0Z" stroke="none"/><g transform="translate(0.49 1.235)"><path class="b_lowToHigh" d="M0,0V2.207H10.047V0Z" transform="translate(6.318 12.776) rotate(-90)"/><path class="b_lowToHigh" d="M0,0V2.207H6.245V0Z" transform="translate(10.358 12.776) rotate(-90)"/><path class="b_lowToHigh" d="M0,0V2.207H3.122V0Z" transform="translate(14.397 12.776) rotate(-90)"/><g transform="translate(16.703 18.955) rotate(180)"><line class="c_lowToHigh" x1="9.738" transform="translate(0.266 2.084)"/><path class="c_lowToHigh" d="M-4428.049-4714.081l-1.1,1.208-.774.846.948,1.066.931,1.048" transform="translate(4429.928 4714.081)"/></g></g></g></svg>