<svg xmlns="http://www.w3.org/2000/svg" width="24" height="24" viewBox="0 0 24 24"><path class="b" d="M18.338,7.576a1.581,1.581,0,0,1-1.576,1.576,1.339,1.339,0,0,1-.4-.055l-2.806,2.8a1.392,1.392,0,0,1,.055.41,1.576,1.576,0,0,1-3.152,0,1.392,1.392,0,0,1,.055-.41L8.5,9.885a1.55,1.55,0,0,1-.82,0L4.1,13.479a1.339,1.339,0,0,1,.055.4A1.576,1.576,0,1,1,2.576,12.3a1.339,1.339,0,0,1,.4.055L6.572,8.774a1.392,1.392,0,0,1-.055-.41,1.576,1.576,0,0,1,3.152,0,1.392,1.392,0,0,1-.055.41l2.01,2.01a1.55,1.55,0,0,1,.82,0l2.8-2.806a1.339,1.339,0,0,1-.055-.4,1.576,1.576,0,0,1,3.152,0Z" transform="translate(2.332 1.271)"/></svg>
