<svg id="icon.device" xmlns="http://www.w3.org/2000/svg" width="24" height="24" viewBox="0 0 24 24">
  <path id="Canvas" d="M0,0H24V24H0Z" fill="none"/>
  <path id="Fill" d="M-8399.738,9841.487v-2.666h-2.015v2.666h-.888v-2.666h-2.015v2.666h-.888v-2.666h-2.9a.873.873,0,0,1-.888-.888v-2.843H-8412v-.888h2.666v-2.015H-8412v-.888h2.666v-2.015H-8412v-.888h2.666v-2.9a.873.873,0,0,1,.888-.888h2.844v-2.668h.888v2.668h2.016v-2.668h.888v2.668h2.015v-2.668h.888v2.668h2.9a.873.873,0,0,1,.888.888v2.9h2.665v.828h-2.665v2.016h2.665v.888h-2.665v2.015h2.665v.888h-2.665v2.9a.873.873,0,0,1-.888.888h-2.844v2.666Zm-8.708-15.693v11.845a.28.28,0,0,0,.3.295h11.843a.281.281,0,0,0,.3-.295v-11.845a.28.28,0,0,0-.3-.3h-11.843A.28.28,0,0,0-8408.446,9825.794Zm3.2,9.269a.278.278,0,0,1-.294-.3v-6.071a.278.278,0,0,1,.294-.295h6.045a.322.322,0,0,1,.325.295v6.071a.279.279,0,0,1-.3.3Zm12.795-5.836v.06Z" transform="translate(8414.226 -9819.744)" fill="#7e7e7e"/>
</svg>
