<svg id="icon.view" xmlns="http://www.w3.org/2000/svg" width="24" height="24" viewBox="0 0 24 24">
  <rect id="canvas" width="24" height="24" fill="none"/>
  <path id="Path_11382" data-name="Path 11382" d="M14.82,3H4.478A1.477,1.477,0,0,0,3,4.478V14.82A1.477,1.477,0,0,0,4.478,16.3H14.82A1.482,1.482,0,0,0,16.3,14.82V4.478A1.477,1.477,0,0,0,14.82,3Zm0,11.82H4.478V5.955H14.82ZM9.649,8.541a3.64,3.64,0,0,1,3.206,1.847,3.706,3.706,0,0,1-6.413,0A3.64,3.64,0,0,1,9.649,8.541m0-1.108a4.761,4.761,0,0,0-4.433,2.955,4.8,4.8,0,0,0,8.865,0A4.761,4.761,0,0,0,9.649,7.433Zm0,4.063a1.108,1.108,0,1,1,1.108-1.108A1.107,1.107,0,0,1,9.649,11.5Z" transform="translate(2 3)" fill="#7e7e7e"/>
</svg>
