<svg xmlns="http://www.w3.org/2000/svg" viewBox="0 0 24 24">
  <path d="M12.941,5.77a.77.77,0,0,1,.77-.77,3.862,3.862,0,0,1,1.442.286,3.7,3.7,0,0,1,1.26.864,3.7,3.7,0,0,1,.864,1.26,3.775,3.775,0,0,1,0,2.884,3.683,3.683,0,0,1-.851,1.247l-.759.834-.025.027-2.465,2.466a3.7,3.7,0,0,1-1.26.864,3.775,3.775,0,0,1-2.884,0,3.7,3.7,0,0,1-1.26-.864,3.7,3.7,0,0,1-.864-1.26,3.964,3.964,0,0,1-.286-1.519,3.862,3.862,0,0,1,.286-1.442,3.7,3.7,0,0,1,.864-1.26l.848-.848a.77.77,0,0,1,1.09,1.09l-.848.848a2.17,2.17,0,0,0-.523.743,2.322,2.322,0,0,0-.176.87,2.424,2.424,0,0,0,.176.947,2.17,2.17,0,0,0,.523.743,2.17,2.17,0,0,0,.743.523,2.235,2.235,0,0,0,1.739,0,2.17,2.17,0,0,0,.743-.523l2.453-2.453.758-.834.025-.027a2.17,2.17,0,0,0,.523-.743,2.235,2.235,0,0,0,0-1.739,2.17,2.17,0,0,0-.523-.743,2.17,2.17,0,0,0-.743-.523,2.322,2.322,0,0,0-.87-.176A.77.77,0,0,1,12.941,5.77ZM9.165,6.926A2.322,2.322,0,0,0,8.3,7.1a2.17,2.17,0,0,0-.743.523l-2.53,2.53-.758.834-.025.027a2.17,2.17,0,0,0-.523.743,2.236,2.236,0,0,0,0,1.739,2.17,2.17,0,0,0,.523.743,2.17,2.17,0,0,0,.743.523,2.323,2.323,0,0,0,.87.176.77.77,0,0,1,0,1.541,3.861,3.861,0,0,1-1.442-.286,3.7,3.7,0,0,1-1.26-.864,3.7,3.7,0,0,1-.864-1.26,3.775,3.775,0,0,1,0-2.884,3.682,3.682,0,0,1,.851-1.247L3.9,9.1l.025-.027L6.463,6.535a3.7,3.7,0,0,1,1.26-.864,3.775,3.775,0,0,1,2.884,0,3.7,3.7,0,0,1,1.26.864,3.7,3.7,0,0,1,.864,1.26,3.775,3.775,0,0,1,0,2.884,3.684,3.684,0,0,1-.852,1.248l-.837.913A.77.77,0,1,1,9.907,11.8l.848-.925.023-.024a2.17,2.17,0,0,0,.523-.743,2.235,2.235,0,0,0,0-1.739,2.17,2.17,0,0,0-.523-.743,2.17,2.17,0,0,0-.743-.523A2.322,2.322,0,0,0,9.165,6.926Z" transform="translate(2 1)"/>
</svg>
