<svg xmlns="http://www.w3.org/2000/svg" viewBox="0 0 24 24">
  <path d="M11.649,2H5.53A1.534,1.534,0,0,0,4,3.53V15.768A1.534,1.534,0,0,0,5.53,17.3h9.179a1.534,1.534,0,0,0,1.53-1.53V6.589Zm3.06,13.768H5.53V3.53h6.119v3.06h3.06Zm-4.589-2.295h0a1.534,1.534,0,0,1-1.53-1.53V7.737a.379.379,0,0,1,.382-.382h0a.379.379,0,0,1,.382.382v4.207h1.53V7.737A1.913,1.913,0,0,0,8.972,5.824h0A1.913,1.913,0,0,0,7.06,7.737v4.207A3.059,3.059,0,0,0,10.119,15h0a3.059,3.059,0,0,0,3.06-3.06V8.884h-1.53v3.06A1.534,1.534,0,0,1,10.119,13.473Z" transform="translate(1.881 2.352)"/>
</svg>
