<svg id="icon.connector" xmlns="http://www.w3.org/2000/svg" width="24" height="24" viewBox="0 0 24 24">
  <path id="Fill" d="M-2598.152-135.333a1.644,1.644,0,0,1-1.639-1.639h-1.639v-3.278h1.639a1.644,1.644,0,0,1,1.639-1.639h2.459v6.556Zm3.278-.82v-1.639h1.639a.822.822,0,0,1,.82.82.822.822,0,0,1-.82.819Zm-9.013-1.639a3.277,3.277,0,0,1-3.278-3.278,3.277,3.277,0,0,1,3.278-3.278h1.229a1.227,1.227,0,0,0,1.229-1.229,1.227,1.227,0,0,0-1.229-1.229h-2.868a.822.822,0,0,1-.82-.82.822.822,0,0,1,.82-.819h2.868a2.87,2.87,0,0,1,2.867,2.867,2.871,2.871,0,0,1-2.867,2.868h-1.229a1.644,1.644,0,0,0-1.639,1.639,1.643,1.643,0,0,0,1.639,1.639h1.639v1.639Zm9.013-1.639v-1.639h1.639a.822.822,0,0,1,.82.82.822.822,0,0,1-.82.819Z" transform="translate(2611.791 153.889)"/>
</svg>
