<svg width="16" height="14" viewBox="0 0 16 14" fill="none" xmlns="http://www.w3.org/2000/svg">
<path fill-rule="evenodd" clip-rule="evenodd" d="M11.7382 0.419922L15.0282 3.70996L11.7382 7V4.53247H8.44812V2.88745H11.7382V0.419922ZM5.98059 2.88745C5.52821 2.88745 5.15808 3.25758 5.15808 3.70996C5.15808 4.16234 5.52821 4.53247 5.98059 4.53247C6.43297 4.53247 6.8031 4.16234 6.8031 3.70996C6.8031 3.25758 6.43297 2.88745 5.98059 2.88745ZM2.69055 2.88745C2.23817 2.88745 1.86804 3.25758 1.86804 3.70996C1.86804 4.16234 2.23817 4.53247 2.69055 4.53247C3.14293 4.53247 3.51306 4.16234 3.51306 3.70996C3.51306 3.25758 3.14293 2.88745 2.69055 2.88745ZM3.51306 11.1126H6.8031V9.46753H3.51306V7L0.223022 10.29L3.51306 13.5801V11.1126ZM9.27063 11.1126C9.72301 11.1126 10.0931 10.7424 10.0931 10.29C10.0931 9.83766 9.72301 9.46753 9.27063 9.46753C8.81825 9.46753 8.44812 9.83766 8.44812 10.29C8.44812 10.7424 8.81825 11.1126 9.27063 11.1126ZM12.5607 11.1126C13.0131 11.1126 13.3832 10.7424 13.3832 10.29C13.3832 9.83766 13.0131 9.46753 12.5607 9.46753C12.1083 9.46753 11.7382 9.83766 11.7382 10.29C11.7382 10.7424 12.1083 11.1126 12.5607 11.1126Z" fill="#33CA36"/>
</svg>
