<svg id="icon.doc" xmlns="http://www.w3.org/2000/svg" width="24" height="24" viewBox="0 0 24 24">
  <rect id="canvas" width="24" height="24" fill="none"/>
  <path id="fill" d="M22124.57,19102.293a1.824,1.824,0,0,1-1.822-1.828v-12.516a1.824,1.824,0,0,1,1.822-1.828h8.15l3.588,3.59v10.754a1.829,1.829,0,0,1-1.828,1.828Zm-.262-14.344v12.516a.262.262,0,0,0,.262.262h9.91a.262.262,0,0,0,.262-.262v-9.648h-3.127v-3.129h-7.045A.262.262,0,0,0,22124.309,19087.949Zm1.518,9.867v-2h7v2Zm0-3v-2h7v2Zm0-3v-2h4v2Z" transform="translate(-22117.492 -19082.246)" fill="#7e7e7e"/>
</svg>
