<svg id="icon.export" xmlns="http://www.w3.org/2000/svg" width="23.999" height="24" viewBox="0 0 23.999 24">
  <rect id="canvas" width="23.999" height="24" fill="none"/>
  <path id="fill" d="M12414.6,17107a1.615,1.615,0,0,1-1.6-1.625v-9.754a1.613,1.613,0,0,1,1.6-1.621h1.6a.811.811,0,0,1,0,1.621h-1.6v9.754h1.6a.813.813,0,0,1,0,1.625Zm9.837-2.676a.821.821,0,0,1,0-1.15l1.833-1.861h-8.468a.812.812,0,0,1,0-1.623h8.468l-1.833-1.861a.819.819,0,0,1,0-1.148.789.789,0,0,1,1.131,0l3.2,3.248a.821.821,0,0,1,0,1.148l-3.2,3.248a.787.787,0,0,1-.566.238A.777.777,0,0,1,12424.436,17104.324Z" transform="translate(-12409 -17089)" fill="#7e7e7e"/>
</svg>
