<svg xmlns="http://www.w3.org/2000/svg" width="24" height="24" viewBox="0 0 24 24"><defs><style>.a_globe{fill:none;}.b_globe{fill:#7e7e7e;fill-rule:evenodd;}</style></defs><rect class="a_globe" width="24" height="24"/><path class="b_globe" d="M15.525,8A7.5,7.5,0,1,1,8,15.525,7.5,7.5,0,0,1,15.525,8Zm0,.852a6.353,6.353,0,0,1,1.656.189.314.314,0,0,1-.095.331c-.237.237-1.041.379-.757.521s.473.331.757.189a2.507,2.507,0,0,0,.426-.331s.521.852.189.8c-.379,0-.946-.047-1.088.095s-.9.142-.9.331c0,.237-.237.663-.379.663-.189,0-.8.047-.8.237s-.379.568-.142.568c.284,0,.615.095.8-.142a7.291,7.291,0,0,0,.663-.615c.237-.237.757,0,.9-.095s.71-.237.757-.047a2.074,2.074,0,0,1,.331.9c0,.142-.521.8-.852.663-.284-.095-.189-.568-.521-.521-.379.095-.852.189-1.23.284-.331.095-1.041,0-1.088.189a.888.888,0,0,1-.426.71c-.426.284-1.183.663-.994.946s.047.521-.095.9c-.189.331.237.994.568,1.325s.521.568,1.088.426c.568-.095,1.088-.237,1.23,0,.189.284.473,0,.71.142a.747.747,0,0,1,.047.9c-.142.379.521.331.615.615.047.284.095.473.521.379.379-.095.615-.142.615.379a1.68,1.68,0,0,1-.473,1.136c-.095.237.189.615.379.8A6.631,6.631,0,0,1,10.7,20.162a3.221,3.221,0,0,1,.142-.568c.047-.284.237-.615.095-.946-.095-.331-.615-.521-1.183-1.136-.521-.663-.047-.9-.284-1.42a1.053,1.053,0,0,0-.615-.521v-.047a6.772,6.772,0,0,1,.9-3.407,1.5,1.5,0,0,0,.757.189.765.765,0,0,0,.568-.568c.142-.379-.047-.521.379-.946.379-.426.379-.9.568-.8.237.047.237.142.284.426.047.237.568.095.8-.189s.237-.426.71-.426,1.325-.047,1.23-.426a3.09,3.09,0,0,0-.095-.521Zm6.294,4.5a6.572,6.572,0,0,1,.379,2.177,6.715,6.715,0,0,1-3.5,5.868v-.047c.284-.663.189-.71.521-.994.284-.237,1.041-.379,1.041-.663s-.284-1.136-.237-1.278c.047-.189.852-1.041.9-1.893a4.144,4.144,0,0,0-.994-2.461,5.5,5.5,0,0,1-.852-1.42c0-.142-.473-.426-.426-.379a.672.672,0,0,1-.047-.521c.095-.284.473-.142.473-.142s.095-.521.284-.426c.237.095.521.331.521.521s-.284.426-.284.426a4.611,4.611,0,0,0,.521.852c.284.473.615.663.8.284C20.92,12.969,21.44,13.158,21.819,13.348Z" transform="translate(-3.502 -2.621)"/></svg>