<svg width="17" height="17" viewBox="0 0 17 17" fill="none" xmlns="http://www.w3.org/2000/svg">
<path d="M14.1667 9.91666C14.9491 9.91666 15.5833 9.2824 15.5833 8.49999C15.5833 7.71759 14.9491 7.08333 14.1667 7.08333C13.3843 7.08333 12.75 7.71759 12.75 8.49999C12.75 9.2824 13.3843 9.91666 14.1667 9.91666Z" fill="#7E7E7E"/>
<path d="M2.83329 9.91666C3.6157 9.91666 4.24996 9.2824 4.24996 8.49999C4.24996 7.71759 3.6157 7.08333 2.83329 7.08333C2.05089 7.08333 1.41663 7.71759 1.41663 8.49999C1.41663 9.2824 2.05089 9.91666 2.83329 9.91666Z" fill="#7E7E7E"/>
<path d="M8.50004 15.5833C9.28244 15.5833 9.91671 14.9491 9.91671 14.1667C9.91671 13.3843 9.28244 12.75 8.50004 12.75C7.71764 12.75 7.08337 13.3843 7.08337 14.1667C7.08337 14.9491 7.71764 15.5833 8.50004 15.5833Z" fill="#7E7E7E"/>
<path d="M7.11871 6.08458L4.27121 3.22291H4.26413L4.04455 2.99625L3.03871 3.995L5.88621 6.86375L5.8933 6.85667L6.11288 7.08333L7.11871 6.08458ZM9.87625 6.10371L12.9965 2.99271L13.9966 3.995L10.8764 7.10671L9.87625 6.10371ZM7.09038 10.88L6.08455 9.88125L3.22996 12.7217L3.0033 12.9554L4.00205 13.9542L6.85663 11.1067L7.09038 10.88ZM13.9966 12.9625L11.1704 10.1221L10.9154 9.87417L9.91663 10.8729L12.7429 13.7133L12.9908 13.9612L13.9966 12.9625Z" fill="#7E7E7E"/>
<path d="M8.50004 4.25001C9.28244 4.25001 9.91671 3.61574 9.91671 2.83334C9.91671 2.05094 9.28244 1.41667 8.50004 1.41667C7.71764 1.41667 7.08337 2.05094 7.08337 2.83334C7.08337 3.61574 7.71764 4.25001 8.50004 4.25001Z" fill="#7E7E7E"/>
</svg>
