<svg width="25" height="25" viewBox="0 0 25 25" fill="none" xmlns="http://www.w3.org/2000/svg">
<path fill-rule="evenodd" clip-rule="evenodd" d="M15.7129 11.7441C16.9426 11.7441 17.9279 10.7514 17.9279 9.5217C17.9279 8.29198 16.9426 7.29932 15.7129 7.29932C14.4832 7.29932 13.4905 8.29198 13.4905 9.5217C13.4905 10.7514 14.4832 11.7441 15.7129 11.7441ZM9.78655 11.7441C11.0163 11.7441 12.0015 10.7514 12.0015 9.5217C12.0015 8.29198 11.0163 7.29932 9.78655 7.29932C8.55683 7.29932 7.56417 8.29198 7.56417 9.5217C7.56417 10.7514 8.55683 11.7441 9.78655 11.7441ZM9.78655 13.2257C8.0605 13.2257 4.601 14.0924 4.601 15.8184V17.6704H14.9721V15.8184C14.9721 14.0924 11.5126 13.2257 9.78655 13.2257ZM15.7129 13.2257C15.4981 13.2257 15.2536 13.2405 14.9943 13.2627C15.8536 13.885 16.4537 14.7221 16.4537 15.8184V17.6704H20.8984V15.8184C20.8984 14.0924 17.4389 13.2257 15.7129 13.2257Z" fill="#7E7E7E"/>
</svg>
