<svg id="icon.ticket" xmlns="http://www.w3.org/2000/svg" width="24" height="24" viewBox="0 0 24 24">
  <rect id="canvas" width="24" height="24" fill="none"/>
  <path id="Path_11177" data-name="Path 11177" d="M17.1,2.762H13.414a2.633,2.633,0,0,0-4.969,0H4.762A1.767,1.767,0,0,0,3,4.524V16.859a1.767,1.767,0,0,0,1.762,1.762H17.1a1.767,1.767,0,0,0,1.762-1.762V4.524A1.767,1.767,0,0,0,17.1,2.762Zm-6.167,0a.881.881,0,1,1-.881.881A.884.884,0,0,1,10.929,2.762ZM12.692,15.1H6.524V13.335h6.167Zm2.643-3.524H6.524V9.811h8.811Zm0-3.524H6.524V6.286h8.811Z" transform="translate(1.071 2.189)" fill="#7e7e7e"/>
</svg>