<svg xmlns="http://www.w3.org/2000/svg" viewBox="0 0 24 24">
  <path d="M14.938,10.252a5.27,5.27,0,0,0,.045-.7,4.3,4.3,0,0,0-.052-.7l1.512-1.177a.365.365,0,0,0,.089-.454L15.1,4.747a.364.364,0,0,0-.44-.164L12.882,5.3a5.263,5.263,0,0,0-1.207-.7l-.268-1.892a.36.36,0,0,0-.358-.305H8.188a.353.353,0,0,0-.35.305L7.57,4.6a5.379,5.379,0,0,0-1.207.7L4.583,4.583a.356.356,0,0,0-.44.164L2.72,7.22a.339.339,0,0,0,.089.454L4.322,8.852a4.145,4.145,0,0,0-.015,1.4L2.795,11.429a.365.365,0,0,0-.089.454l1.43,2.473a.364.364,0,0,0,.44.164l1.781-.715a5.263,5.263,0,0,0,1.207.7L7.831,16.4a.366.366,0,0,0,.358.305h2.861a.347.347,0,0,0,.35-.305l.268-1.892a5.11,5.11,0,0,0,1.207-.7l1.781.715a.356.356,0,0,0,.44-.164l1.43-2.473a.345.345,0,0,0-.089-.454ZM9.619,12.234A2.682,2.682,0,1,1,12.3,9.552,2.69,2.69,0,0,1,9.619,12.234Z" transform="translate(2.336 2.6)"/>
</svg>
