<svg width="25" height="25" viewBox="0 0 25 25" fill="none" xmlns="http://www.w3.org/2000/svg">
<path fill-rule="evenodd" clip-rule="evenodd" d="M6.85695 18.5005C5.83742 18.5005 5.18508 17.4497 5.65578 16.5767L11.3023 6.19775C11.8101 5.26611 13.189 5.26611 13.6948 6.19775L19.3413 16.5767C19.8159 17.4497 19.1616 18.5005 18.1421 18.5005H6.85695ZM6.85695 17.188H18.1421L12.4976 6.80713L6.85695 17.188ZM11.4839 14.8989C11.4839 14.354 11.939 13.9126 12.4976 13.9126C13.0601 13.9126 13.5152 14.354 13.5152 14.8989C13.5152 15.438 13.0601 15.8794 12.4976 15.8794C11.939 15.8794 11.4839 15.438 11.4839 14.8989ZM11.8218 12.604V10.6431C11.8218 10.2778 12.1265 9.98876 12.4976 9.98876C12.8745 9.98876 13.1792 10.2778 13.1792 10.6431V12.604C13.1792 12.9653 12.8745 13.2583 12.4976 13.2583C12.1265 13.2583 11.8218 12.9653 11.8218 12.604Z" />
</svg>
