<?xml version="1.0" encoding="utf-8"?>
<svg viewBox="0 0 222.96 258" xmlns="http://www.w3.org/2000/svg">
  <defs>
    <style>.c{fill:#221f20;}</style>
  </defs>
  <circle class="c" cx="3" cy="182.317" r="5" style="fill: rgb(129, 10, 184);"/>
  <circle class="c" cx="3" cy="131.441" r="5" style="fill: rgb(129, 10, 184);"/>
  <circle class="c" cx="3" cy="80.211" r="5" style="fill: rgb(129, 10, 184);"/>
  <circle class="c" cx="29.487" cy="51.788" r="15" style="fill: rgb(129, 10, 184);"/>
  <circle class="c" cx="29.487" cy="104.866" r="20" style="fill: rgb(129, 10, 184);"/>
  <circle class="c" cx="29.487" cy="154.079" r="20" style="fill: rgb(129, 10, 184);"/>
  <circle class="c" cx="29.487" cy="203.615" r="20" style="fill: rgb(129, 10, 184);"/>
  <circle class="c" cx="70.898" cy="223.924" r="5" style="fill: rgb(129, 10, 184);"/>
  <circle class="c" cx="70.898" cy="134.809" r="20" style="fill: rgb(129, 10, 184);"/>
  <circle class="c" cx="70.898" cy="185.389" r="15" style="fill: rgb(129, 10, 184);"/>
  <circle class="c" cx="70.898" cy="83.449" r="5" style="fill: rgb(129, 10, 184);"/>
  <circle class="c" cx="70.898" cy="32.613" r="5" style="fill: rgb(129, 10, 184);"/>
  <circle class="c" cx="111" cy="241.948" r="5" style="fill: rgb(129, 10, 184);"/>
  <circle class="c" cx="111" cy="52.755" r="5" style="fill: rgb(129, 10, 184);"/>
  <circle class="c" cx="111" cy="1.796" r="5" style="fill: rgb(129, 10, 184);"/>
  <circle class="c" cx="111" cy="205.038" r="5" style="fill: rgb(129, 10, 184);"/>
  <circle class="c" cx="111" cy="155.726" r="20" style="fill: rgb(129, 10, 184);"/>
  <circle class="c" cx="111" cy="104.893" r="15" style="fill: rgb(129, 10, 184);"/>
  <circle class="c" cx="193.137" cy="52.263" r="15" style="fill: rgb(129, 10, 184);"/>
  <circle class="c" cx="193.137" cy="104.607" r="20" style="fill: rgb(129, 10, 184);"/>
  <circle class="c" cx="193.137" cy="154.457" r="20" style="fill: rgb(129, 10, 184);"/>
  <circle class="c" cx="193.137" cy="203.434" r="20" style="fill: rgb(129, 10, 184);"/>
  <circle class="c" cx="220.746" cy="80.092" r="5" style="fill: rgb(129, 10, 184);"/>
  <circle class="c" cx="220.746" cy="131.128" r="5" style="fill: rgb(129, 10, 184);"/>
  <circle class="c" cx="220.746" cy="182.12" r="5" style="fill: rgb(129, 10, 184);"/>
  <circle class="c" cx="151.88" cy="84.13" r="5" style="fill: rgb(129, 10, 184);"/>
  <circle class="c" cx="151.88" cy="33.021" r="5" style="fill: rgb(129, 10, 184);"/>
  <circle class="c" cx="151.88" cy="185.903" r="15" style="fill: rgb(129, 10, 184);"/>
  <circle class="c" cx="151.88" cy="134.972" r="20" style="fill: rgb(129, 10, 184);"/>
  <circle class="c" cx="151.88" cy="224.332" r="5" style="fill: rgb(129, 10, 184);"/>
</svg>