<?xml version="1.0" encoding="utf-8"?>
<svg viewBox="0 0 128 40" xmlns="http://www.w3.org/2000/svg">

  <style>
    .letter { fill: rgb(0,0,0); }
    #i { transform-origin: 40.09px 10.961px; }
  </style>
<g id="w" class="letter">
    <path d="M 12.304 33.589 L 5.265 10.961 L 9.289 10.961 L 12.952 24.024 L 14.316 28.884 C 14.37 28.642 14.766 27.085 15.502 24.219 L 19.165 10.961 L 23.169 10.961 L 26.606 24.084 L 27.759 28.414 L 29.075 24.044 L 33.017 10.961 L 36.803 10.961 L 29.621 33.589 L 25.569 33.589 L 21.914 20.037 L 21.027 16.184 L 16.369 33.589 L 12.304 33.589 Z"/>
</g>
<g id="i" class="letter">
<path d="M 40.09 33.589 L 40.09 10.961 L 43.985 10.961 L 43.985 33.589 L 40.09 33.589 Z">
    <animate
    attributeName="d"
    dur="10s"
    repeatCount="indefinite"
    values="M 40.09 33.589 L 40.09 10.961 L 43.985 10.961 L 43.985 33.589 L 40.09 33.589 Z;
            M 40.09 33.589 L 40.09 20.961 L 43.985 20.961 L 43.985 33.589 L 40.09 33.589 Z;
            M 40.09 33.589 L 40.09 10.961 L 43.985 10.961 L 43.985 33.589 L 40.09 33.589 Z;"
    keyTimes="0; 0.5; 1" />
</path>
</g>
<g id="l1" class="letter">
    <path d="M 49.823 33.589 L 49.823 2.356 L 53.717 2.356 L 53.717 33.589 L 49.823 33.589 Z">
    <animate
    attributeName="d"
    dur="7s"
    repeatCount="indefinite"
    values="M 49.823 33.589 L 49.823 2.356 L 53.717 2.356 L 53.717 33.589 L 49.823 33.589 Z;
            M 49.823 33.589 L 49.823 12.356 L 53.717 12.356 L 53.717 33.589 L 49.823 33.589 Z;
            M 49.823 33.589 L 49.823 2.356 L 53.717 2.356 L 53.717 33.589 L 49.823 33.589 Z;
            M 49.823 33.589 L 49.823 12.356 L 53.717 12.356 L 53.717 33.589 L 49.823 33.589 Z;
            M 49.823 33.589 L 49.823 2.356 L 53.717 2.356 L 53.717 33.589 L 49.823 33.589 Z;
            M 49.823 33.589 L 49.823 12.356 L 53.717 12.356 L 53.717 33.589 L 49.823 33.589 Z;
            M 49.823 33.589 L 49.823 2.356 L 53.717 2.356 L 53.717 33.589 L 49.823 33.589 Z;"
    keyTimes="0; 0.2; 0.3; 0.5; 0.6; 0.7; 1" />
    </path>
</g>
  <g id="l2" class="letter">
  <path d="M 59.678 33.589 L 59.678 2.356 L 63.573 2.356 L 63.573 33.589 L 59.678 33.589 Z">
    <animate
    attributeName="d"
    dur="3s"
    repeatCount="indefinite"
    values="M 59.678 33.589 L 59.678 2.356 L 63.573 2.356 L 63.573 33.589 L 59.678 33.589 Z;
            M 59.678 33.589 L 59.678 12.356 L 63.573 12.356 L 63.573 33.589 L 59.678 33.589 Z;
            M 59.678 33.589 L 59.678 2.356 L 63.573 2.356 L 63.573 33.589 L 59.678 33.589 Z;
            M 59.678 33.589 L 59.678 12.356 L 63.573 12.356 L 63.573 33.589 L 59.678 33.589 Z;
            M 59.678 33.589 L 59.678 2.356 L 63.573 2.356 L 63.573 33.589 L 59.678 33.589 Z;"
    keyTimes="0; 0.2; 0.4; 0.5; 1" />
  </path>
  </g>
  <g id="o" class="letter">
  <path d="M 68.156 22.279 C 68.156 18.083 69.343 14.982 71.71 12.969 C 73.681 11.29 76.095 10.451 78.939 10.451 C 82.097 10.451 84.682 11.472 86.687 13.512 C 88.692 15.546 89.695 18.365 89.695 21.957 C 89.695 24.87 89.252 27.159 88.365 28.83 C 87.478 30.502 86.189 31.797 84.491 32.717 C 82.793 33.636 80.944 34.1 78.939 34.1 C 75.72 34.1 73.115 33.086 71.13 31.052 C 69.145 29.018 68.156 26.098 68.156 22.279 Z M 72.16 22.279 C 72.16 25.172 72.801 27.34 74.09 28.783 C 75.372 30.226 76.989 30.945 78.939 30.945 C 80.869 30.945 82.479 30.22 83.761 28.777 C 85.05 27.327 85.691 25.118 85.691 22.151 C 85.691 19.352 85.043 17.231 83.754 15.788 C 82.465 14.345 80.856 13.626 78.939 13.626 C 76.989 13.626 75.372 14.345 74.09 15.781 C 72.801 17.211 72.16 19.379 72.16 22.279 Z" />
  </g>
  <path d="M 98.507 33.589 L 91.468 10.961 L 95.492 10.961 L 99.155 24.024 L 100.519 28.884 C 100.574 28.642 100.969 27.085 101.706 24.219 L 105.368 10.961 L 109.372 10.961 L 112.809 24.084 L 113.962 28.414 L 115.278 24.044 L 119.221 10.961 L 123.006 10.961 L 115.824 33.589 L 111.773 33.589 L 108.117 20.037 L 107.23 16.184 L 102.572 33.589 L 98.507 33.589 Z" style="fill: rgb(51, 51, 51);"/>
</svg>
