<svg xmlns="http://www.w3.org/2000/svg" width="21.914" height="25.321" viewBox="0 0 21.914 25.321">
  <g stroke="none">
    <g transform="translate(1.83 4.442)">
      <path d="M150.639,2029.634a.708.708,0,1,1-.706.708A.707.707,0,0,1,150.639,2029.634Z" transform="translate(-149.933 -2026.963)" fill="#626262"/>
      <path d="M150.639,2024.888a.708.708,0,1,1-.706.708A.707.707,0,0,1,150.639,2024.888Z" transform="translate(-149.933 -2024.888)" fill="#626262"/>
      <path d="M154.46,2027.061a.708.708,0,1,1-.705.708A.707.707,0,0,1,154.46,2027.061Z" transform="translate(-151.604 -2025.838)" fill="#626262"/>
      <path d="M154.46,2031.388a.708.708,0,1,1-.705.708A.707.707,0,0,1,154.46,2031.388Z" transform="translate(-151.604 -2027.729)" fill="#626262"/>
      <path d="M154.46,2035.638a.708.708,0,1,1-.705.709A.707.707,0,0,1,154.46,2035.638Z" transform="translate(-151.604 -2029.587)" fill="#626262"/>
      <path d="M154.46,2040.042a.708.708,0,1,1-.705.708A.707.707,0,0,1,154.46,2040.042Z" transform="translate(-151.604 -2031.512)" fill="#626262"/>
      <path d="M154.46,2044.369a.708.708,0,1,1-.705.708A.707.707,0,0,1,154.46,2044.369Z" transform="translate(-151.604 -2033.404)" fill="#626262"/>
      <path d="M154.46,2048.7a.708.708,0,1,1-.705.708A.707.707,0,0,1,154.46,2048.7Z" transform="translate(-151.604 -2035.295)" fill="#626262"/>
      <path d="M154.46,2053.023a.708.708,0,1,1-.705.708A.707.707,0,0,1,154.46,2053.023Z" transform="translate(-151.604 -2037.187)" fill="#626262"/>
      <path d="M150.639,2033.836a.709.709,0,1,1-.706.709A.707.707,0,0,1,150.639,2033.836Z" transform="translate(-149.933 -2028.799)" fill="#626262"/>
      <path d="M150.639,2038.043a.708.708,0,1,1-.706.708A.707.707,0,0,1,150.639,2038.043Z" transform="translate(-149.933 -2030.639)" fill="#626262"/>
      <path d="M150.639,2042.249a.707.707,0,1,1-.706.707A.707.707,0,0,1,150.639,2042.249Z" transform="translate(-149.933 -2032.477)" fill="#626262"/>
      <path d="M150.639,2046.446a.708.708,0,1,1-.706.708A.707.707,0,0,1,150.639,2046.446Z" transform="translate(-149.933 -2034.312)" fill="#626262"/>
      <path d="M150.639,2050.678a.708.708,0,1,1-.706.708A.706.706,0,0,1,150.639,2050.678Z" transform="translate(-149.933 -2036.162)" fill="#626262"/>
      <path d="M180.622,2029.634a.708.708,0,1,1-.705.708A.707.707,0,0,1,180.622,2029.634Z" transform="translate(-163.04 -2026.963)" fill="#626262"/>
      <path d="M180.622,2024.888a.708.708,0,1,1-.705.708A.707.707,0,0,1,180.622,2024.888Z" transform="translate(-163.04 -2024.888)" fill="#626262"/>
      <path d="M180.622,2033.836a.709.709,0,1,1-.705.709A.707.707,0,0,1,180.622,2033.836Z" transform="translate(-163.04 -2028.799)" fill="#626262"/>
      <path d="M180.622,2038.043a.708.708,0,1,1-.705.708A.707.707,0,0,1,180.622,2038.043Z" transform="translate(-163.04 -2030.639)" fill="#626262"/>
      <path d="M180.622,2042.249a.707.707,0,1,1-.705.707A.707.707,0,0,1,180.622,2042.249Z" transform="translate(-163.04 -2032.477)" fill="#626262"/>
      <path d="M180.622,2046.446a.708.708,0,1,1-.705.708A.707.707,0,0,1,180.622,2046.446Z" transform="translate(-163.04 -2034.312)" fill="#626262"/>
      <path d="M180.622,2050.678a.708.708,0,1,1-.705.708A.707.707,0,0,1,180.622,2050.678Z" transform="translate(-163.04 -2036.162)" fill="#626262"/>
      <path d="M165.688,2038.043a.708.708,0,1,1-.706.708A.707.707,0,0,1,165.688,2038.043Z" transform="translate(-156.511 -2030.639)" fill="#626262"/>
      <path d="M165.688,2033.836a.708.708,0,1,1-.706.708A.707.707,0,0,1,165.688,2033.836Z" transform="translate(-156.511 -2028.799)" fill="#626262"/>
      <path d="M165.688,2042.25a.707.707,0,1,1-.706.706A.706.706,0,0,1,165.688,2042.25Z" transform="translate(-156.511 -2032.478)" fill="#626262"/>
      <path d="M165.688,2046.446a.707.707,0,1,1-.706.707A.706.706,0,0,1,165.688,2046.446Z" transform="translate(-156.511 -2034.312)" fill="#626262"/>
      <path d="M161.811,2040.042a.708.708,0,1,1-.705.708A.707.707,0,0,1,161.811,2040.042Z" transform="translate(-154.817 -2031.512)" fill="#626262"/>
      <path d="M161.811,2035.638a.708.708,0,1,1-.705.709A.707.707,0,0,1,161.811,2035.638Z" transform="translate(-154.817 -2029.587)" fill="#626262"/>
      <path d="M161.811,2044.369a.708.708,0,1,1-.705.708A.707.707,0,0,1,161.811,2044.369Z" transform="translate(-154.817 -2033.404)" fill="#626262"/>
      <path d="M161.811,2048.7a.708.708,0,1,1-.705.708A.707.707,0,0,1,161.811,2048.7Z" transform="translate(-154.817 -2035.295)" fill="#626262"/>
      <path d="M169.45,2040.042a.708.708,0,1,1-.705.708A.707.707,0,0,1,169.45,2040.042Z" transform="translate(-158.156 -2031.512)" fill="#626262"/>
      <path d="M169.45,2035.638a.708.708,0,1,1-.705.709A.707.707,0,0,1,169.45,2035.638Z" transform="translate(-158.156 -2029.587)" fill="#626262"/>
      <path d="M176.8,2040.042a.708.708,0,1,1-.706.708A.707.707,0,0,1,176.8,2040.042Z" transform="translate(-161.369 -2031.512)" fill="#626262"/>
      <path d="M176.8,2035.638a.708.708,0,1,1-.706.709A.707.707,0,0,1,176.8,2035.638Z" transform="translate(-161.369 -2029.587)" fill="#626262"/>
      <path d="M176.8,2031.388a.708.708,0,1,1-.706.708A.707.707,0,0,1,176.8,2031.388Z" transform="translate(-161.369 -2027.729)" fill="#626262"/>
      <path d="M176.8,2027.061a.708.708,0,1,1-.706.708A.707.707,0,0,1,176.8,2027.061Z" transform="translate(-161.369 -2025.838)" fill="#626262"/>
      <path d="M176.8,2044.369a.708.708,0,1,1-.706.708A.707.707,0,0,1,176.8,2044.369Z" transform="translate(-161.369 -2033.404)" fill="#626262"/>
      <path d="M176.8,2048.7a.708.708,0,1,1-.706.708A.707.707,0,0,1,176.8,2048.7Z" transform="translate(-161.369 -2035.295)" fill="#626262"/>
      <path d="M176.8,2053.023a.708.708,0,1,1-.706.708A.707.707,0,0,1,176.8,2053.023Z" transform="translate(-161.369 -2037.187)" fill="#626262"/>
      <path d="M169.45,2044.369a.708.708,0,1,1-.705.708A.707.707,0,0,1,169.45,2044.369Z" transform="translate(-158.156 -2033.404)" fill="#626262"/>
      <path d="M169.45,2048.7a.708.708,0,1,1-.705.708A.707.707,0,0,1,169.45,2048.7Z" transform="translate(-158.156 -2035.295)" fill="#626262"/>
      <path d="M158.049,2042.245a.708.708,0,1,1-.705.708A.707.707,0,0,1,158.049,2042.245Z" transform="translate(-153.173 -2032.475)" fill="#626262"/>
      <path d="M158.049,2038.043a.708.708,0,1,1-.705.708A.707.707,0,0,1,158.049,2038.043Z" transform="translate(-153.173 -2030.639)" fill="#626262"/>
      <path d="M158.049,2046.446a.707.707,0,1,1-.705.707A.706.706,0,0,1,158.049,2046.446Z" transform="translate(-153.173 -2034.312)" fill="#626262"/>
      <path d="M158.049,2050.678a.706.706,0,1,1-.705.707A.706.706,0,0,1,158.049,2050.678Z" transform="translate(-153.173 -2036.162)" fill="#626262"/>
      <path d="M173.326,2042.245a.708.708,0,1,1-.705.708A.707.707,0,0,1,173.326,2042.245Z" transform="translate(-159.851 -2032.475)" fill="#626262"/>
      <path d="M173.326,2038.043a.708.708,0,1,1-.705.708A.707.707,0,0,1,173.326,2038.043Z" transform="translate(-159.851 -2030.639)" fill="#626262"/>
      <path d="M173.326,2046.446a.707.707,0,1,1-.705.707A.707.707,0,0,1,173.326,2046.446Z" transform="translate(-159.851 -2034.312)" fill="#626262"/>
      <path d="M173.326,2050.678a.706.706,0,1,1-.705.707A.706.706,0,0,1,173.326,2050.678Z" transform="translate(-159.851 -2036.162)" fill="#626262"/>
      <path d="M154.683,2031.9a.419.419,0,1,1-.417.419A.418.418,0,0,1,154.683,2031.9Z" transform="translate(-151.827 -2027.954)" fill="#626262"/>
      <path d="M154.683,2036.231a.418.418,0,1,1-.417.419A.418.418,0,0,1,154.683,2036.231Z" transform="translate(-151.827 -2029.846)" fill="#626262"/>
      <path d="M154.683,2049.21a.418.418,0,1,1-.417.419A.418.418,0,0,1,154.683,2049.21Z" transform="translate(-151.827 -2035.52)" fill="#626262"/>
      <path d="M154.684,2053.537a.418.418,0,1,1-.418.418A.418.418,0,0,1,154.684,2053.537Z" transform="translate(-151.827 -2037.412)" fill="#626262"/>
      <path d="M150.922,2025.4a.418.418,0,1,1-.418.419A.418.418,0,0,1,150.922,2025.4Z" transform="translate(-150.183 -2025.113)" fill="#626262"/>
      <path d="M150.921,2029.729a.418.418,0,1,1-.417.419A.418.418,0,0,1,150.921,2029.729Z" transform="translate(-150.183 -2027.004)" fill="#626262"/>
      <path d="M150.922,2038.381a.42.42,0,1,1-.418.42A.419.419,0,0,1,150.922,2038.381Z" transform="translate(-150.183 -2030.786)" fill="#626262"/>
      <path d="M150.921,2047.037a.418.418,0,1,1-.417.419A.418.418,0,0,1,150.921,2047.037Z" transform="translate(-150.183 -2034.57)" fill="#626262"/>
      <path d="M150.922,2051.364a.418.418,0,1,1-.418.419A.418.418,0,0,1,150.922,2051.364Z" transform="translate(-150.183 -2036.462)" fill="#626262"/>
      <path d="M177.025,2027.575a.418.418,0,1,1-.418.419A.418.418,0,0,1,177.025,2027.575Z" transform="translate(-161.593 -2026.063)" fill="#626262"/>
      <path d="M177.026,2031.9a.419.419,0,1,0,.417.419A.418.418,0,0,0,177.026,2031.9Z" transform="translate(-161.594 -2027.954)" fill="#626262"/>
      <path d="M177.026,2036.229a.418.418,0,1,0,.417.419A.418.418,0,0,0,177.026,2036.229Z" transform="translate(-161.594 -2029.845)" fill="#626262"/>
      <path d="M177.026,2044.883a.419.419,0,1,0,.417.419A.418.418,0,0,0,177.026,2044.883Z" transform="translate(-161.594 -2033.628)" fill="#626262"/>
      <path d="M177.026,2049.21a.418.418,0,1,0,.417.419A.418.418,0,0,0,177.026,2049.21Z" transform="translate(-161.594 -2035.52)" fill="#626262"/>
      <path d="M177.025,2053.537a.418.418,0,1,1-.418.418A.418.418,0,0,1,177.025,2053.537Z" transform="translate(-161.593 -2037.412)" fill="#626262"/>
      <path d="M180.787,2025.4a.418.418,0,1,1-.418.419A.418.418,0,0,1,180.787,2025.4Z" transform="translate(-163.238 -2025.113)" fill="#626262"/>
      <path d="M180.788,2029.729a.418.418,0,1,0,.417.419A.418.418,0,0,0,180.788,2029.729Z" transform="translate(-163.239 -2027.004)" fill="#626262"/>
      <path d="M180.788,2034.056a.418.418,0,1,0,.417.419A.418.418,0,0,0,180.788,2034.056Z" transform="translate(-163.239 -2028.896)" fill="#626262"/>
      <path d="M180.788,2042.71a.418.418,0,1,0,.417.418A.418.418,0,0,0,180.788,2042.71Z" transform="translate(-163.239 -2032.679)" fill="#626262"/>
      <path d="M180.788,2047.037a.418.418,0,1,0,.417.419A.418.418,0,0,0,180.788,2047.037Z" transform="translate(-163.239 -2034.57)" fill="#626262"/>
      <path d="M180.787,2051.364a.418.418,0,1,1-.418.419A.418.418,0,0,1,180.787,2051.364Z" transform="translate(-163.238 -2036.462)" fill="#626262"/>
      <path d="M165.855,2034.323a.419.419,0,1,1-.416.419A.418.418,0,0,1,165.855,2034.323Z" transform="translate(-156.711 -2029.012)" fill="#626262"/>
      <path d="M165.855,2042.977a.418.418,0,1,0,.417.418A.417.417,0,0,0,165.855,2042.977Z" transform="translate(-156.711 -2032.796)" fill="#626262"/>
      <path d="M165.855,2047.3a.42.42,0,1,1-.416.42A.418.418,0,0,1,165.855,2047.3Z" transform="translate(-156.711 -2034.686)" fill="#626262"/>
      <path d="M162.207,2036.268a.418.418,0,1,1-.416.418A.417.417,0,0,1,162.207,2036.268Z" transform="translate(-155.117 -2029.863)" fill="#626262"/>
      <path d="M162.207,2049.246a.418.418,0,1,1-.416.418A.417.417,0,0,1,162.207,2049.246Z" transform="translate(-155.117 -2035.536)" fill="#626262"/>
      <path d="M158.1,2051.419a.42.42,0,1,1-.417.42A.418.418,0,0,1,158.1,2051.419Z" transform="translate(-153.322 -2036.486)" fill="#626262"/>
      <path d="M173.264,2042.768a.418.418,0,1,0,.417.418A.417.417,0,0,0,173.264,2042.768Z" transform="translate(-159.95 -2032.704)" fill="#626262"/>
      <path d="M173.264,2047.095a.418.418,0,1,0,.417.418A.418.418,0,0,0,173.264,2047.095Z" transform="translate(-159.95 -2034.595)" fill="#626262"/>
      <path d="M173.262,2051.419a.42.42,0,1,1-.418.42A.419.419,0,0,1,173.262,2051.419Z" transform="translate(-159.948 -2036.486)" fill="#626262"/>
      <path d="M169.5,2036.153a.419.419,0,1,1-.417.419A.417.417,0,0,1,169.5,2036.153Z" transform="translate(-158.306 -2029.812)" fill="#626262"/>
      <path d="M169.5,2044.807a.418.418,0,1,0,.417.419A.418.418,0,0,0,169.5,2044.807Z" transform="translate(-158.305 -2033.595)" fill="#626262"/>
      <path d="M169.5,2049.132a.418.418,0,1,1-.417.418A.417.417,0,0,1,169.5,2049.132Z" transform="translate(-158.306 -2035.486)" fill="#626262"/>
    </g>
    <g>
      <g transform="translate(10.555)" opacity="0.8">
        <path d="M165.853,2017a.419.419,0,1,1-.418.419A.418.418,0,0,1,165.853,2017Z" transform="translate(-165.435 -2016.996)" fill="#626262"/>
        <path d="M165.853,2021.346a.418.418,0,1,1-.418.418A.418.418,0,0,1,165.853,2021.346Z" transform="translate(-165.435 -2018.898)" fill="#626262"/>
        <path d="M165.853,2025.7a.418.418,0,1,1-.418.418A.418.418,0,0,1,165.853,2025.7Z" transform="translate(-165.435 -2020.799)" fill="#626262"/>
        <path d="M165.853,2030.046a.419.419,0,1,1-.418.418A.418.418,0,0,1,165.853,2030.046Z" transform="translate(-165.435 -2022.701)" fill="#626262"/>
        <path d="M165.853,2034.4a.418.418,0,1,1-.418.418A.418.418,0,0,1,165.853,2034.4Z" transform="translate(-165.435 -2024.602)" fill="#626262"/>
        <path d="M165.853,2038.746a.418.418,0,1,1-.418.418A.418.418,0,0,1,165.853,2038.746Z" transform="translate(-165.435 -2026.504)" fill="#626262"/>
        <path d="M165.853,2043.1a.418.418,0,1,1-.418.418A.418.418,0,0,1,165.853,2043.1Z" transform="translate(-165.435 -2028.405)" fill="#626262"/>
        <path d="M165.853,2051.795a.418.418,0,1,1-.418.419A.418.418,0,0,1,165.853,2051.795Z" transform="translate(-165.435 -2032.208)" fill="#626262"/>
        <path d="M165.853,2056.145a.418.418,0,1,1-.418.418A.418.418,0,0,1,165.853,2056.145Z" transform="translate(-165.435 -2034.109)" fill="#626262"/>
        <path d="M165.853,2060.5a.418.418,0,1,1-.418.418A.418.418,0,0,1,165.853,2060.5Z" transform="translate(-165.435 -2036.011)" fill="#626262"/>
      </g>
      <g transform="translate(12.706 1.369)" opacity="0.8">
        <path d="M169.674,2019.429a.418.418,0,1,1-.418.419A.418.418,0,0,1,169.674,2019.429Z" transform="translate(-169.256 -2019.429)" fill="#626262"/>
        <path d="M169.674,2023.779a.418.418,0,1,1-.418.419A.418.418,0,0,1,169.674,2023.779Z" transform="translate(-169.256 -2021.331)" fill="#626262"/>
        <path d="M169.674,2028.129a.418.418,0,1,1-.418.419A.418.418,0,0,1,169.674,2028.129Z" transform="translate(-169.256 -2023.232)" fill="#626262"/>
        <path d="M169.674,2032.479a.419.419,0,1,1-.418.418A.418.418,0,0,1,169.674,2032.479Z" transform="translate(-169.256 -2025.134)" fill="#626262"/>
        <path d="M169.674,2054.228a.419.419,0,1,1-.418.419A.418.418,0,0,1,169.674,2054.228Z" transform="translate(-169.256 -2034.641)" fill="#626262"/>
        <path d="M169.674,2058.578a.419.419,0,1,1-.418.419A.418.418,0,0,1,169.674,2058.578Z" transform="translate(-169.256 -2036.542)" fill="#626262"/>
      </g>
      <g transform="translate(14.789 2.522)" opacity="0.8">
        <path d="M173.375,2021.476a.418.418,0,1,1-.418.418A.418.418,0,0,1,173.375,2021.476Z" transform="translate(-172.957 -2021.476)" fill="#626262"/>
        <path d="M173.375,2025.826a.418.418,0,1,1-.418.418A.418.418,0,0,1,173.375,2025.826Z" transform="translate(-172.957 -2023.378)" fill="#626262"/>
        <path d="M173.375,2030.175a.418.418,0,1,1-.418.418A.418.418,0,0,1,173.375,2030.175Z" transform="translate(-172.957 -2025.279)" fill="#626262"/>
        <path d="M173.375,2034.525a.418.418,0,1,1-.418.419A.418.418,0,0,1,173.375,2034.525Z" transform="translate(-172.957 -2027.18)" fill="#626262"/>
        <path d="M173.375,2056.275a.418.418,0,1,1-.418.418A.418.418,0,0,1,173.375,2056.275Z" transform="translate(-172.957 -2036.688)" fill="#626262"/>
      </g>
      <g transform="translate(8.406 1.369)" opacity="0.8">
        <path d="M162.035,2019.429a.418.418,0,1,1-.418.419A.418.418,0,0,1,162.035,2019.429Z" transform="translate(-161.617 -2019.429)" fill="#626262"/>
        <path d="M162.035,2023.779a.418.418,0,1,1-.418.419A.418.418,0,0,1,162.035,2023.779Z" transform="translate(-161.617 -2021.331)" fill="#626262"/>
        <path d="M162.035,2028.129a.418.418,0,1,1-.418.419A.418.418,0,0,1,162.035,2028.129Z" transform="translate(-161.617 -2023.232)" fill="#626262"/>
        <path d="M162.035,2032.479a.419.419,0,1,1-.418.418A.418.418,0,0,1,162.035,2032.479Z" transform="translate(-161.617 -2025.134)" fill="#626262"/>
        <path d="M162.035,2054.228a.419.419,0,1,1-.418.419A.418.418,0,0,1,162.035,2054.228Z" transform="translate(-161.617 -2034.641)" fill="#626262"/>
        <path d="M162.035,2058.578a.419.419,0,1,1-.418.419A.418.418,0,0,1,162.035,2058.578Z" transform="translate(-161.617 -2036.542)" fill="#626262"/>
      </g>
      <g transform="translate(6.289 2.522)" opacity="0.8">
        <path d="M158.273,2021.476a.418.418,0,1,1-.418.418A.418.418,0,0,1,158.273,2021.476Z" transform="translate(-157.855 -2021.476)" fill="#626262"/>
        <path d="M158.273,2025.826a.418.418,0,1,1-.418.418A.418.418,0,0,1,158.273,2025.826Z" transform="translate(-157.855 -2023.378)" fill="#626262"/>
        <path d="M158.273,2030.175a.418.418,0,1,1-.418.418A.418.418,0,0,1,158.273,2030.175Z" transform="translate(-157.855 -2025.279)" fill="#626262"/>
        <path d="M158.273,2034.525a.418.418,0,1,1-.418.419A.418.418,0,0,1,158.273,2034.525Z" transform="translate(-157.855 -2027.18)" fill="#626262"/>
        <path d="M158.273,2056.275a.418.418,0,1,1-.418.418A.418.418,0,0,1,158.273,2056.275Z" transform="translate(-157.855 -2036.688)" fill="#626262"/>
      </g>
      <g transform="translate(0 6.191)" opacity="0.8">
        <path d="M147.1,2027.995a.418.418,0,1,1-.418.418A.418.418,0,0,1,147.1,2027.995Z" transform="translate(-146.682 -2027.995)" fill="#626262"/>
        <path d="M147.1,2032.345a.418.418,0,1,1-.418.418A.418.418,0,0,1,147.1,2032.345Z" transform="translate(-146.682 -2029.897)" fill="#626262"/>
        <path d="M147.1,2036.694a.418.418,0,1,1-.418.419A.418.418,0,0,1,147.1,2036.694Z" transform="translate(-146.682 -2031.797)" fill="#626262"/>
        <path d="M147.1,2041.044a.418.418,0,1,1-.418.419A.418.418,0,0,1,147.1,2041.044Z" transform="translate(-146.682 -2033.699)" fill="#626262"/>
        <path d="M147.1,2045.4a.418.418,0,1,1-.418.419A.418.418,0,0,1,147.1,2045.4Z" transform="translate(-146.682 -2035.602)" fill="#626262"/>
        <path d="M147.1,2049.746a.418.418,0,1,1-.418.418A.418.418,0,0,1,147.1,2049.746Z" transform="translate(-146.682 -2037.503)" fill="#626262"/>
      </g>
      <g transform="translate(21.078 6.191)" opacity="0.8">
        <path d="M184.547,2027.995a.418.418,0,1,1-.418.418A.418.418,0,0,1,184.547,2027.995Z" transform="translate(-184.129 -2027.995)" fill="#626262"/>
        <path d="M184.547,2032.345a.418.418,0,1,1-.418.418A.418.418,0,0,1,184.547,2032.345Z" transform="translate(-184.129 -2029.897)" fill="#626262"/>
        <path d="M184.547,2036.694a.418.418,0,1,1-.418.419A.419.419,0,0,1,184.547,2036.694Z" transform="translate(-184.129 -2031.797)" fill="#626262"/>
        <path d="M184.547,2041.044a.418.418,0,1,1-.418.419A.419.419,0,0,1,184.547,2041.044Z" transform="translate(-184.129 -2033.699)" fill="#626262"/>
        <path d="M184.547,2045.4a.418.418,0,1,1-.418.419A.419.419,0,0,1,184.547,2045.4Z" transform="translate(-184.129 -2035.602)" fill="#626262"/>
        <path d="M184.547,2049.746a.418.418,0,1,1-.418.418A.418.418,0,0,1,184.547,2049.746Z" transform="translate(-184.129 -2037.503)" fill="#626262"/>
      </g>
      <g transform="translate(4.269 3.746)" opacity="0.8">
        <path d="M154.684,2023.651a.418.418,0,1,1-.418.418A.418.418,0,0,1,154.684,2023.651Z" transform="translate(-154.266 -2023.651)" fill="#626262"/>
      </g>
      <path d="M177.024,2023.668a.418.418,0,1,1-.417.418A.418.418,0,0,1,177.024,2023.668Z" transform="translate(-159.763 -2019.913)" fill="#626262" opacity="0.8"/>
    </g>
  </g>
</svg>
