<svg width="180" height="180" viewBox="0 0 180 180" fill="none" xmlns="http://www.w3.org/2000/svg">
<g id="illustration=no-data, theme=light" clip-path="url(#clip0_7258_697)">
<path id="Vector" opacity="0.3" d="M90 180C139.706 180 180 139.706 180 90C180 40.2944 139.706 0 90 0C40.2944 0 0 40.2944 0 90C0 139.706 40.2944 180 90 180Z" fill="#E1E1E1"/>
<path id="Vector_2" d="M133.396 80.9204L127.751 67.8429H51.6919L45.8755 80.9204H133.396Z" fill="#D7D7D7"/>
<path id="Vector_3" d="M52.2184 80.9204L51.6919 67.8429L45.9368 80.9204H52.2184Z" fill="#B7B7B7"/>
<path id="Vector_4" d="M133.402 80.9204L127.641 67.8306L127.114 80.9204H133.402Z" fill="#B7B7B7"/>
<path id="Vector_5" d="M117.214 80.7613C117.3 80.5103 117.355 80.247 117.355 79.9654V51.1899C117.355 49.8062 116.235 48.6919 114.857 48.6919H65.149C63.7653 48.6919 62.651 49.8123 62.651 51.1899V79.9654C62.651 80.247 62.7061 80.5103 62.7918 80.7613H117.214Z" fill="#E1E1E1"/>
<path id="Vector_6" d="M132.294 83.3204H46.9408C44.9019 83.3204 43.249 84.9733 43.249 87.0123V117.655C43.249 119.694 44.9019 121.347 46.9408 121.347H132.294C134.333 121.347 135.986 119.694 135.986 117.655V87.0123C135.986 84.9733 134.333 83.3204 132.294 83.3204Z" fill="#D7D7D7"/>
<path id="Vector_7" d="M102.845 102.343V102.337C102.845 100.673 101.496 99.3245 99.8326 99.3245H79.402C77.7384 99.3245 76.3898 100.673 76.3898 102.337V102.343C76.3898 104.007 77.7384 105.355 79.402 105.355H99.8326C101.496 105.355 102.845 104.007 102.845 102.343Z" fill="#B7B7B7"/>
<path id="Vector_8" d="M88.7877 69.3797V69.0123C88.7877 67.1633 89.2163 66.0368 90.753 64.7143C91.7449 63.8572 91.9959 63.4286 91.9959 62.7735C91.9959 61.6286 91.3163 60.9246 90.1714 60.9246C89.0265 60.9246 88.5367 61.4511 88.3653 62.8286H85.7816C85.9959 59.6817 88.2306 58.3409 90.2877 58.3409C92.7367 58.3409 94.5857 60.245 94.5857 62.7735C94.5857 64.2123 93.8081 65.2225 92.7 66.2327C91.5367 67.2797 91.3775 67.6899 91.3775 68.9756V69.3858H88.7939L88.7877 69.3797ZM88.7877 73.0103V70.4266H91.3714V73.0103H88.7877Z" fill="#5560F6"/>
<path id="Vector_9" opacity="0.75" d="M90.5572 145.427C105.773 145.427 118.108 143.782 118.108 141.753C118.108 139.724 105.773 138.08 90.5572 138.08C75.3412 138.08 63.0061 139.724 63.0061 141.753C63.0061 143.782 75.3412 145.427 90.5572 145.427Z" fill="#E1E1E1"/>
</g>
<defs>
<clipPath id="clip0_7258_697">
<rect width="180" height="180" fill="white"/>
</clipPath>
</defs>
</svg>
