<svg width="180" height="180" viewBox="0 0 180 180" fill="none" xmlns="http://www.w3.org/2000/svg">
<g id="illustration=no-results, theme=light" clip-path="url(#clip0_7258_707)">
<path id="Vector" opacity="0.3" d="M90 180C139.706 180 180 139.706 180 90C180 40.2944 139.706 0 90 0C40.2944 0 0 40.2944 0 90C0 139.706 40.2944 180 90 180Z" fill="#E1E1E1"/>
<path id="Vector_2" d="M90.2938 130.451C99.9779 130.451 107.828 122.6 107.828 112.916C107.828 103.232 99.9779 95.3817 90.2938 95.3817C80.6096 95.3817 72.7591 103.232 72.7591 112.916C72.7591 122.6 80.6096 130.451 90.2938 130.451Z" fill="#B7B7B7"/>
<path id="Vector_3" d="M90.2938 126.441C97.7632 126.441 103.818 120.386 103.818 112.916C103.818 105.447 97.7632 99.3918 90.2938 99.3918C82.8245 99.3918 76.7693 105.447 76.7693 112.916C76.7693 120.386 82.8245 126.441 90.2938 126.441Z" fill="#E1E1E1"/>
<path id="Vector_4" d="M128.161 71.2041C112.849 71.2041 97.5428 71.2041 82.2306 71.2041C80.0755 71.2041 79.0959 70.2245 79.0898 68.0755C79.0898 65.749 79.0898 63.4225 79.0898 61.0959C79.0898 59.7122 78.7714 59.3878 77.3816 59.3878C68.1428 59.3878 58.904 59.3878 49.6714 59.3878C47.8163 59.3878 46.9714 60.1959 46.9714 62.0204C46.9653 81.3061 46.9653 100.586 46.9714 119.871C46.9714 121.702 47.8163 122.529 49.653 122.529C55.2428 122.535 64.5 122.529 70.0898 122.529H72.5204C70.8795 119.608 69.9367 116.241 69.9367 112.647C69.9367 101.486 78.9795 92.4429 90.1408 92.4429C101.302 92.4429 110.345 101.486 110.345 112.647C110.345 116.235 109.402 119.608 107.761 122.529H113.369C118.892 122.529 120.741 122.529 126.263 122.529C128.706 122.529 129.392 121.861 129.392 119.443C129.392 103.776 129.392 88.1143 129.392 72.4469C129.392 71.6143 128.978 71.198 128.149 71.198L128.161 71.2041Z" fill="#D7D7D7"/>
<path id="Vector_5" d="M84.9428 108.392L95.4734 118.922" stroke="#5560F6" stroke-width="2.91327" stroke-miterlimit="10"/>
<path id="Vector_6" d="M95.4734 108.392L84.9428 118.922" stroke="#5560F6" stroke-width="2.91327" stroke-miterlimit="10"/>
<path id="Vector_7" d="M111.891 141.9C112.972 142.981 114.724 142.981 115.805 141.9C116.885 140.819 116.885 139.067 115.805 137.987L106.298 128.48C105.217 127.399 103.465 127.399 102.384 128.48C101.303 129.56 101.303 131.312 102.384 132.393L111.891 141.9Z" fill="#B7B7B7"/>
<path id="Vector_8" opacity="0.75" d="M113.877 153.673C120.64 153.673 126.122 152.577 126.122 151.224C126.122 149.872 120.64 148.776 113.877 148.776C107.115 148.776 101.633 149.872 101.633 151.224C101.633 152.577 107.115 153.673 113.877 153.673Z" fill="#E1E1E1"/>
<path id="Vector_9" d="M128.388 69.1837H83.1C81.9918 69.1837 81.0857 68.2837 81.0857 67.1694V60.6612C81.0857 59.9571 81.6612 59.3816 82.3653 59.3816L127.139 59.3816C128.247 59.3816 129.153 60.2816 129.153 61.3959V68.4183C129.153 68.8408 128.81 69.1837 128.388 69.1837Z" fill="#B7B7B7"/>
</g>
<defs>
<clipPath id="clip0_7258_707">
<rect width="180" height="180" fill="white"/>
</clipPath>
</defs>
</svg>
