<svg width="180" height="180" viewBox="0 0 180 180" fill="none" xmlns="http://www.w3.org/2000/svg">
<g id="illustration=no-data, theme=dark" clip-path="url(#clip0_7258_655)">
<path id="Vector" d="M90 180C139.706 180 180 139.706 180 90C180 40.2944 139.706 0 90 0C40.2944 0 0 40.2944 0 90C0 139.706 40.2944 180 90 180Z" fill="#3C3C3C"/>
<path id="Vector_2" d="M133.341 80.7979L127.751 67.8428H51.6918L45.9367 80.7979H133.341Z" fill="#787878"/>
<path id="Vector_3" d="M52.2122 80.7979L51.6918 67.8428L45.9918 80.7979H52.2122Z" fill="#616365"/>
<path id="Vector_4" d="M133.347 80.7979L127.641 67.8306L127.12 80.7979H133.347Z" fill="#616365"/>
<path id="Vector_5" d="M117.337 80.7245C117.337 80.6755 117.349 80.6266 117.349 80.5714V51.7959C117.349 50.4123 116.229 49.298 114.851 49.298H65.1428C63.7592 49.298 62.6449 50.4184 62.6449 51.7959V80.5714C62.6449 80.6204 62.6571 80.6694 62.6571 80.7245H117.331H117.337Z" fill="#ABABAB"/>
<path id="Vector_6" d="M132.294 83.3204H46.9408C44.9019 83.3204 43.249 84.9733 43.249 87.0122V117.655C43.249 119.694 44.9019 121.347 46.9408 121.347H132.294C134.333 121.347 135.986 119.694 135.986 117.655V87.0122C135.986 84.9733 134.333 83.3204 132.294 83.3204Z" fill="#8E8E8E"/>
<path id="Vector_7" d="M102.845 102.343V102.337C102.845 100.673 101.496 99.3245 99.8326 99.3245H79.402C77.7384 99.3245 76.3898 100.673 76.3898 102.337V102.343C76.3898 104.006 77.7384 105.355 79.402 105.355H99.8326C101.496 105.355 102.845 104.006 102.845 102.343Z" fill="#787878"/>
<path id="Vector_8" d="M88.7877 69.3796V69.0122C88.7877 67.1633 89.2163 66.0367 90.753 64.7143C91.7449 63.8571 91.9959 63.4286 91.9959 62.7735C91.9959 61.6286 91.3163 60.9245 90.1714 60.9245C89.0265 60.9245 88.5367 61.451 88.3653 62.8286H85.7816C85.9959 59.6816 88.2306 58.3408 90.2877 58.3408C92.7367 58.3408 94.5857 60.2449 94.5857 62.7735C94.5857 64.2122 93.8081 65.2225 92.7 66.2327C91.5367 67.2796 91.3775 67.6898 91.3775 68.9755V69.3857H88.7939L88.7877 69.3796ZM88.7877 73.0102V70.4265H91.3714V73.0102H88.7877Z" fill="#5560F6"/>
<path id="Vector_9" opacity="0.1" d="M90.5572 145.427C105.773 145.427 118.108 143.782 118.108 141.753C118.108 139.724 105.773 138.08 90.5572 138.08C75.3411 138.08 63.0061 139.724 63.0061 141.753C63.0061 143.782 75.3411 145.427 90.5572 145.427Z" fill="#E1E1E1"/>
</g>
<defs>
<clipPath id="clip0_7258_655">
<rect width="180" height="180" fill="white"/>
</clipPath>
</defs>
</svg>
