<svg width="180" height="180" viewBox="0 0 180 180" fill="none" xmlns="http://www.w3.org/2000/svg">
<g clip-path="url(#clip0_7258_685)">
<path d="M90 180C139.706 180 180 139.706 180 90C180 40.2944 139.706 0 90 0C40.2944 0 0 40.2944 0 90C0 139.706 40.2944 180 90 180Z" fill="#3C3C3C"/>
<path d="M91.5306 30.153H88.4694V37.5H91.5306V30.153Z" fill="#5560F6"/>
<path d="M90 63.8939C101.608 63.8939 111.018 57.2522 111.018 49.0592C111.018 40.8662 101.608 34.2245 90 34.2245C78.3919 34.2245 68.9817 40.8662 68.9817 49.0592C68.9817 57.2522 78.3919 63.8939 90 63.8939Z" fill="#787878"/>
<path d="M62.3384 109.996V106.213L70.5622 93.2548H73.9242V98.3909H71.9736L67.1609 106.017V106.174H79.0702V109.996H62.3384ZM72.0325 113.329V108.84L72.1305 107.183V93.2548H76.6687V113.329H72.0325ZM89.9159 113.819C88.1647 113.819 86.6552 113.404 85.3875 112.574C84.1198 111.738 83.1429 110.539 82.4567 108.977C81.7706 107.409 81.4308 105.523 81.4373 103.321C81.4439 101.119 81.7869 99.2502 82.4665 97.7146C83.1527 96.1725 84.1263 94.9995 85.3875 94.1957C86.6552 93.3855 88.1647 92.9803 89.9159 92.9803C91.6672 92.9803 93.1767 93.3855 94.4444 94.1957C95.7186 94.9995 96.6988 96.1725 97.385 97.7146C98.0711 99.2568 98.4109 101.126 98.4044 103.321C98.4044 105.53 98.0613 107.418 97.3752 108.987C96.689 110.555 95.7121 111.754 94.4444 112.584C93.1832 113.407 91.6737 113.819 89.9159 113.819ZM89.9159 109.849C90.9615 109.849 91.8077 109.317 92.4546 108.252C93.1016 107.18 93.4217 105.537 93.4152 103.321C93.4152 101.871 93.2682 100.675 92.9741 99.7338C92.6801 98.7863 92.2717 98.0806 91.7489 97.6166C91.2261 97.1526 90.6151 96.9207 89.9159 96.9207C88.8769 96.9207 88.0373 97.4467 87.3969 98.4988C86.7565 99.5443 86.433 101.152 86.4265 103.321C86.4199 104.792 86.5604 106.01 86.848 106.977C87.142 107.944 87.5537 108.667 88.083 109.144C88.6123 109.614 89.2233 109.849 89.9159 109.849ZM100.938 109.996V106.213L109.162 93.2548H112.524V98.3909H110.573L105.761 106.017V106.174H117.67V109.996H100.938ZM110.632 113.329V108.84L110.73 107.183V93.2548H115.268V113.329H110.632Z" fill="#ABABAB"/>
<path opacity="0.1" d="M90 142.194C104.452 142.194 116.167 140.626 116.167 138.692C116.167 136.758 104.452 135.19 90 135.19C75.5482 135.19 63.8327 136.758 63.8327 138.692C63.8327 140.626 75.5482 142.194 90 142.194Z" fill="#E1E1E1"/>
<path d="M90 85.5C122.583 85.5 148.996 76.3227 148.996 65.002C148.996 53.6813 122.583 44.5041 90 44.5041C57.4175 44.5041 31.0041 53.6813 31.0041 65.002C31.0041 76.3227 57.4175 85.5 90 85.5Z" fill="#8E8E8E"/>
<path d="M65.9878 68.6633L43.8062 133.849L134.394 134.235L114.686 68.6878L65.9878 68.6633Z" fill="url(#paint0_linear_7258_685)"/>
<path d="M90 77.951C103.698 77.951 114.802 74.0915 114.802 69.3306C114.802 64.5697 103.698 60.7102 90 60.7102C76.3022 60.7102 65.198 64.5697 65.198 69.3306C65.198 74.0915 76.3022 77.951 90 77.951Z" fill="#616365"/>
<path d="M63.1531 53.6061C65.8649 53.0971 67.9202 51.9221 67.7436 50.9816C67.5671 50.0411 65.2257 49.6912 62.5139 50.2002C59.802 50.7092 57.7468 51.8842 57.9233 52.8247C58.0998 53.7652 60.4413 54.115 63.1531 53.6061Z" fill="#787878"/>
<path d="M89.9878 51.9796C92.747 51.9796 94.9837 51.2039 94.9837 50.2469C94.9837 49.29 92.747 48.5143 89.9878 48.5143C87.2286 48.5143 84.9919 49.29 84.9919 50.2469C84.9919 51.2039 87.2286 51.9796 89.9878 51.9796Z" fill="#787878"/>
<path d="M122.08 52.4359C122.225 51.49 120.131 50.3848 117.403 49.9675C114.676 49.5501 112.348 49.9786 112.203 50.9245C112.058 51.8704 114.152 52.9756 116.879 53.3929C119.607 53.8103 121.935 53.3818 122.08 52.4359Z" fill="#787878"/>
</g>
<defs>
<linearGradient id="paint0_linear_7258_685" x1="89.3127" y1="132.77" x2="96.7058" y2="73.8894" gradientUnits="userSpaceOnUse">
<stop stop-color="white" stop-opacity="0"/>
<stop offset="1" stop-color="white" stop-opacity="0.15"/>
</linearGradient>
<clipPath id="clip0_7258_685">
<rect width="180" height="180" fill="white"/>
</clipPath>
</defs>
</svg>
