<svg width="180" height="180" viewBox="0 0 180 180" fill="none" xmlns="http://www.w3.org/2000/svg">
<g id="illustration=no-permissions, theme=light" clip-path="url(#clip0_7258_717)">
<path id="Vector" opacity="0.3" d="M90 180C139.706 180 180 139.706 180 90C180 40.2944 139.706 0 90 0C40.2944 0 0 40.2944 0 90C0 139.706 40.2944 180 90 180Z" fill="#E1E1E1"/>
<path id="Vector_2" d="M125.547 71.8041H117.839C117.845 70.5796 117.869 69.4408 117.827 68.3204C117.704 64.8245 117.9 61.2734 117.331 57.8449C114.141 38.5592 91.7633 28.6163 75.2694 39.1408C66.7408 44.5836 62.3694 52.5122 62.149 62.6571C62.0816 65.6571 62.1306 68.6632 62.1367 71.8041H54.453C53.4612 71.8041 52.653 72.6122 52.653 73.6041V128.78C52.653 129.771 53.4612 130.58 54.453 130.58H125.547C126.539 130.58 127.347 129.771 127.347 128.78V73.6041C127.347 72.6122 126.539 71.8041 125.547 71.8041ZM75.349 60C76.3959 52.4265 83.4367 47.302 91.3775 47.8347C98.6143 48.3183 104.731 54.7041 104.927 62.0755C105.012 65.2775 104.951 68.4857 104.945 71.8041H75.0796C75.1102 67.8612 74.8163 63.8755 75.349 60Z" fill="#D7D7D7"/>
<path id="Vector_3" d="M75 71.6326H105V74.0204C105 74.3939 104.7 74.6939 104.327 74.6939H75.6735C75.3 74.6939 75 74.3939 75 74.0204V71.6326Z" fill="#B7B7B7"/>
<path id="Vector_4" d="M91.9347 100.58H88.0653C85.9215 100.58 84.1837 102.317 84.1837 104.461V113.229C84.1837 115.372 85.9215 117.11 88.0653 117.11H91.9347C94.0784 117.11 95.8163 115.372 95.8163 113.229V104.461C95.8163 102.317 94.0784 100.58 91.9347 100.58Z" fill="#F3F3F3"/>
<path id="Vector_5" d="M52.653 127.518H127.347V128.78C127.347 129.771 126.539 130.58 125.547 130.58H54.453C53.4612 130.58 52.653 129.771 52.653 128.78V127.518Z" fill="#B7B7B7"/>
<path id="Vector_6" opacity="0.75" d="M90 150C105.216 150 117.551 148.355 117.551 146.327C117.551 144.298 105.216 142.653 90 142.653C74.784 142.653 62.449 144.298 62.449 146.327C62.449 148.355 74.784 150 90 150Z" fill="#E1E1E1"/>
<path id="Vector_7" d="M96.1224 101.327C96.1224 97.9452 93.3813 95.2041 90 95.2041C86.6186 95.2041 83.8775 97.9452 83.8775 101.327V111.735C83.8775 115.116 86.6186 117.857 90 117.857C93.3813 117.857 96.1224 115.116 96.1224 111.735V101.327Z" stroke="#B7B7B7" stroke-width="2.55102" stroke-miterlimit="10"/>
<path id="Vector_8" d="M90 105.918C95.4744 105.918 99.9122 101.481 99.9122 96.0061C99.9122 90.5317 95.4744 86.0939 90 86.0939C84.5256 86.0939 80.0877 90.5317 80.0877 96.0061C80.0877 101.481 84.5256 105.918 90 105.918Z" fill="#B7B7B7"/>
<path id="Vector_9" d="M90 103.035C93.8818 103.035 97.0286 99.8879 97.0286 96.0061C97.0286 92.1243 93.8818 88.9775 90 88.9775C86.1182 88.9775 82.9714 92.1243 82.9714 96.0061C82.9714 99.8879 86.1182 103.035 90 103.035Z" fill="#5560F6"/>
</g>
<defs>
<clipPath id="clip0_7258_717">
<rect width="180" height="180" fill="white"/>
</clipPath>
</defs>
</svg>
