<svg width="180" height="180" viewBox="0 0 180 180" fill="none" xmlns="http://www.w3.org/2000/svg">
<g clip-path="url(#clip0_7258_727)">
<path opacity="0.3" d="M90 180C139.706 180 180 139.706 180 90C180 40.2944 139.706 0 90 0C40.2944 0 0 40.2944 0 90C0 139.706 40.2944 180 90 180Z" fill="#E1E1E1"/>
<path d="M91.5306 30.1531H88.4694V37.5H91.5306V30.1531Z" fill="#5560F6"/>
<path d="M90 63.8939C101.608 63.8939 111.018 57.2522 111.018 49.0592C111.018 40.8662 101.608 34.2245 90 34.2245C78.3919 34.2245 68.9817 40.8662 68.9817 49.0592C68.9817 57.2522 78.3919 63.8939 90 63.8939Z" fill="#B7B7B7"/>
<path d="M62.3384 109.994V106.21L70.5621 93.2523H73.9242V98.3885H71.9736L67.1609 106.014V106.171H79.0702V109.994H62.3384ZM72.0324 113.327V108.837L72.1304 107.181V93.2523H76.6687V113.327H72.0324ZM89.9159 113.817C88.1647 113.817 86.6552 113.402 85.3875 112.572C84.1197 111.735 83.1428 110.536 82.4567 108.975C81.7706 107.406 81.4308 105.521 81.4373 103.319C81.4438 101.117 81.7869 99.2478 82.4665 97.7122C83.1526 96.17 84.1263 94.9971 85.3875 94.1933C86.6552 93.383 88.1647 92.9779 89.9159 92.9779C91.6672 92.9779 93.1767 93.383 94.4444 94.1933C95.7186 94.9971 96.6988 96.17 97.3849 97.7122C98.0711 99.2543 98.4109 101.123 98.4043 103.319C98.4043 105.528 98.0613 107.416 97.3751 108.984C96.689 110.553 95.7121 111.752 94.4444 112.582C93.1832 113.405 91.6737 113.817 89.9159 113.817ZM89.9159 109.847C90.9614 109.847 91.8077 109.314 92.4546 108.249C93.1015 107.178 93.4217 105.534 93.4152 103.319C93.4152 101.868 93.2682 100.672 92.9741 99.7314C92.68 98.7838 92.2716 98.0781 91.7489 97.6142C91.2261 97.1502 90.6151 96.9182 89.9159 96.9182C88.8769 96.9182 88.0372 97.4443 87.3968 98.4963C86.7565 99.5419 86.433 101.149 86.4265 103.319C86.4199 104.789 86.5604 106.008 86.8479 106.975C87.142 107.942 87.5537 108.664 88.083 109.141C88.6123 109.612 89.2233 109.847 89.9159 109.847ZM100.938 109.994V106.21L109.162 93.2523H112.524V98.3885H110.573L105.761 106.014V106.171H117.67V109.994H100.938ZM110.632 113.327V108.837L110.73 107.181V93.2523H115.268V113.327H110.632Z" fill="#122023"/>
<path opacity="0.75" d="M90 142.194C104.452 142.194 116.167 140.626 116.167 138.692C116.167 136.758 104.452 135.19 90 135.19C75.5482 135.19 63.8327 136.758 63.8327 138.692C63.8327 140.626 75.5482 142.194 90 142.194Z" fill="#E1E1E1"/>
<path d="M90 85.5C122.583 85.5 148.996 76.3227 148.996 65.002C148.996 53.6813 122.583 44.5041 90 44.5041C57.4175 44.5041 31.0041 53.6813 31.0041 65.002C31.0041 76.3227 57.4175 85.5 90 85.5Z" fill="#D7D7D7"/>
<path d="M65.9878 68.6633L43.8062 133.849L134.394 134.235L114.686 68.6878L65.9878 68.6633Z" fill="url(#paint0_linear_7258_727)"/>
<path d="M90 77.951C103.698 77.951 114.802 74.0916 114.802 69.3306C114.802 64.5697 103.698 60.7102 90 60.7102C76.3022 60.7102 65.198 64.5697 65.198 69.3306C65.198 74.0916 76.3022 77.951 90 77.951Z" fill="#B7B7B7"/>
<path d="M63.1531 53.6061C65.8649 53.0972 67.9201 51.9221 67.7436 50.9817C67.5671 50.0412 65.2256 49.6913 62.5138 50.2003C59.802 50.7093 57.7467 51.8843 57.9233 52.8248C58.0998 53.7653 60.4412 54.1151 63.1531 53.6061Z" fill="#B7B7B7"/>
<path d="M89.9878 51.9796C92.747 51.9796 94.9837 51.2039 94.9837 50.2469C94.9837 49.29 92.747 48.5143 89.9878 48.5143C87.2286 48.5143 84.9919 49.29 84.9919 50.2469C84.9919 51.2039 87.2286 51.9796 89.9878 51.9796Z" fill="#B7B7B7"/>
<path d="M122.08 52.4359C122.225 51.49 120.131 50.3848 117.403 49.9675C114.676 49.5501 112.348 49.9786 112.203 50.9245C112.058 51.8704 114.152 52.9756 116.879 53.3929C119.607 53.8103 121.935 53.3818 122.08 52.4359Z" fill="#B7B7B7"/>
</g>
<defs>
<linearGradient id="paint0_linear_7258_727" x1="89.313" y1="132.775" x2="96.7062" y2="73.8945" gradientUnits="userSpaceOnUse">
<stop stop-color="white" stop-opacity="0"/>
<stop offset="1" stop-color="white" stop-opacity="0.4"/>
</linearGradient>
<clipPath id="clip0_7258_727">
<rect width="180" height="180" fill="white"/>
</clipPath>
</defs>
</svg>
