<svg width="180" height="180" viewBox="0 0 180 180" fill="none" xmlns="http://www.w3.org/2000/svg">
<g id="illustration=no-results, theme=dark" clip-path="url(#clip0_7258_665)">
<path id="Vector" d="M90.1225 180C139.896 180 180.245 139.719 180.245 90.0306C180.245 40.3419 139.896 0.0612183 90.1225 0.0612183C40.3493 0.0612183 6.10352e-05 40.3419 6.10352e-05 90.0306C6.10352e-05 139.719 40.3493 180 90.1225 180Z" fill="#3C3C3C"/>
<path id="Vector_2" d="M78 125.333C84.8572 132.178 95.9755 132.178 102.833 125.333C109.69 118.488 109.69 107.388 102.833 100.543C95.9755 93.698 84.8572 93.698 78 100.543C71.1429 107.388 71.1429 118.488 78 125.333Z" fill="#616365"/>
<path id="Vector_3" d="M90.4164 126.459C97.8959 126.459 103.959 120.404 103.959 112.935C103.959 105.465 97.8959 99.4102 90.4164 99.4102C82.9369 99.4102 76.8735 105.465 76.8735 112.935C76.8735 120.404 82.9369 126.459 90.4164 126.459Z" fill="#ABABAB"/>
<path id="Vector_4" d="M128.327 71.2408C112.996 71.2408 97.6654 71.2408 82.3347 71.2408C80.1735 71.2408 79.1939 70.2612 79.1939 68.1122C79.1939 65.7857 79.1939 63.4653 79.1939 61.1388C79.1939 59.7551 78.8756 59.4367 77.4858 59.4306C68.2347 59.4306 58.9837 59.4306 49.7388 59.4306C47.8776 59.4306 47.0388 60.2388 47.0388 62.0633C47.0327 81.3367 47.0327 100.616 47.0388 119.89C47.0388 121.72 47.8837 122.541 49.7266 122.547C55.3225 122.553 64.598 122.547 70.1878 122.547H72.6245C70.9776 119.627 70.0409 116.259 70.0409 112.671C70.0409 101.516 79.096 92.4735 90.2694 92.4735C101.443 92.4735 110.498 101.516 110.498 112.671C110.498 116.259 109.555 119.627 107.914 122.547H113.535C119.063 122.547 120.918 122.547 126.447 122.547C128.896 122.547 129.576 121.88 129.576 119.461C129.576 103.8 129.576 88.1388 129.576 72.4837C129.576 71.651 129.161 71.2347 128.333 71.2347L128.327 71.2408Z" fill="#8E8E8E"/>
<path id="Vector_5" d="M85.0531 108.416L95.596 118.941" stroke="#5560F6" stroke-width="2.91327" stroke-miterlimit="10"/>
<path id="Vector_6" d="M95.596 108.416L85.0531 118.941" stroke="#5560F6" stroke-width="2.91327" stroke-miterlimit="10"/>
<path id="Vector_7" d="M115.965 141.912C117.049 140.835 117.049 139.084 115.965 138L106.445 128.492C105.361 127.414 103.61 127.414 102.527 128.492C101.443 129.569 101.443 131.32 102.527 132.404L112.047 141.912C113.131 142.99 114.882 142.99 115.965 141.912Z" fill="#616365"/>
<path id="Vector_8" opacity="0.1" d="M114.031 153.686C120.803 153.686 126.294 152.589 126.294 151.237C126.294 149.884 120.803 148.788 114.031 148.788C107.258 148.788 101.767 149.884 101.767 151.237C101.767 152.589 107.258 153.686 114.031 153.686Z" fill="#E1E1E1"/>
<path id="Vector_9" d="M128.559 69.2204H83.2102C82.1021 69.2204 81.196 68.3204 81.196 67.2061V60.7041C81.196 60 81.7715 59.4245 82.4756 59.4245L127.31 59.4245C128.418 59.4245 129.325 60.3245 129.325 61.4388V68.4551C129.325 68.8775 128.982 69.2204 128.559 69.2204Z" fill="#616365"/>
</g>
<defs>
<clipPath id="clip0_7258_665">
<rect width="180" height="180" fill="white"/>
</clipPath>
</defs>
</svg>
