<svg xmlns="http://www.w3.org/2000/svg" viewBox="0 0 841.9 595.3">
	<path
      d="M 12.307 8.447 C 12.305 8.28 12.486 8.174 12.631 8.256 C 12.777 8.338 12.779 8.548 12.635 8.633 C 12.601 8.652 12.563 8.663 12.524 8.663 C 12.405 8.663 12.307 8.567 12.307 8.447 M 9.503 17.236 C 9.936 17.238 10.209 16.771 9.994 16.395 C 9.78 16.019 9.239 16.017 9.021 16.39 C 8.971 16.476 8.944 16.574 8.944 16.674 C 8.943 16.983 9.194 17.235 9.503 17.236 M 9.677 13.602 C 9.845 13.602 9.949 13.42 9.865 13.275 C 9.781 13.13 9.572 13.13 9.488 13.276 C 9.469 13.309 9.459 13.346 9.459 13.384 C 9.459 13.504 9.557 13.602 9.677 13.602 M 6.914 22.117 C 7.347 22.119 7.619 21.651 7.404 21.275 C 7.189 20.898 6.647 20.897 6.429 21.271 C 6.379 21.357 6.353 21.455 6.353 21.554 C 6.352 21.865 6.603 22.117 6.914 22.117 M 4.02 15.809 C 3.287 15.806 2.825 16.598 3.189 17.235 C 3.553 17.872 4.469 17.876 4.839 17.242 C 4.924 17.097 4.969 16.931 4.969 16.762 C 4.97 16.237 4.545 15.811 4.02 15.809 M 6.914 15.563 C 7.347 15.565 7.619 15.096 7.404 14.72 C 7.189 14.344 6.647 14.342 6.429 14.717 C 6.379 14.803 6.353 14.901 6.353 15 C 6.352 15.311 6.603 15.563 6.914 15.563 M 12.609 15.592 C 13.043 15.595 13.317 15.127 13.103 14.75 C 12.888 14.372 12.346 14.368 12.126 14.743 C 12.075 14.829 12.049 14.928 12.049 15.028 C 12.047 15.338 12.298 15.591 12.609 15.592 M 12.524 11.954 C 12.692 11.954 12.797 11.773 12.713 11.628 C 12.63 11.483 12.42 11.482 12.336 11.627 C 12.317 11.661 12.307 11.698 12.307 11.737 C 12.307 11.857 12.404 11.954 12.524 11.954 M 9.677 3.723 C 9.843 3.721 9.945 3.54 9.86 3.398 C 9.776 3.255 9.568 3.257 9.487 3.402 C 9.469 3.434 9.459 3.47 9.459 3.508 C 9.46 3.627 9.557 3.724 9.677 3.723 M 9.677 10.306 C 9.843 10.304 9.945 10.124 9.86 9.981 C 9.776 9.838 9.568 9.84 9.487 9.985 C 9.469 10.017 9.459 10.054 9.459 10.091 C 9.46 10.21 9.557 10.307 9.677 10.306 M 9.677 7.015 C 9.843 7.013 9.945 6.832 9.86 6.689 C 9.776 6.546 9.568 6.549 9.487 6.693 C 9.469 6.726 9.459 6.762 9.459 6.799 C 9.46 6.919 9.557 7.015 9.677 7.015 M 6.914 5.371 C 7.082 5.374 7.189 5.195 7.108 5.048 C 7.027 4.902 6.818 4.898 6.732 5.042 C 6.711 5.076 6.701 5.114 6.701 5.154 C 6.699 5.273 6.795 5.37 6.914 5.371 M 4.02 25.378 C 3.287 25.374 2.825 26.166 3.189 26.803 C 3.553 27.44 4.469 27.444 4.839 26.811 C 4.924 26.665 4.969 26.499 4.969 26.33 C 4.97 25.805 4.545 25.379 4.02 25.378 M 1.217 8.232 C 1.098 8.232 1.002 8.328 1.002 8.447 C 1.002 8.566 1.098 8.662 1.217 8.663 C 1.336 8.663 1.432 8.566 1.432 8.447 C 1.432 8.328 1.336 8.231 1.217 8.232 M 4.02 18.992 C 3.288 18.99 2.829 19.782 3.193 20.417 C 3.557 21.052 4.472 21.054 4.84 20.421 C 4.924 20.276 4.969 20.111 4.969 19.943 C 4.97 19.419 4.545 18.993 4.02 18.992 M 1.217 11.519 C 1.097 11.52 1.001 11.617 1.002 11.737 C 1.001 11.856 1.098 11.953 1.217 11.954 C 1.336 11.954 1.433 11.856 1.432 11.737 C 1.433 11.617 1.337 11.52 1.217 11.519 M 4.02 22.175 C 3.287 22.171 2.825 22.963 3.189 23.6 C 3.553 24.237 4.469 24.241 4.839 23.608 C 4.924 23.462 4.969 23.296 4.969 23.127 C 4.97 22.602 4.545 22.176 4.02 22.175 M 1.217 14.81 C 1.097 14.811 1.001 14.908 1.002 15.028 C 1.001 15.147 1.097 15.245 1.217 15.245 C 1.336 15.245 1.433 15.147 1.432 15.028 C 1.433 14.908 1.336 14.811 1.217 14.81 M 1.217 21.394 C 1.097 21.394 1.001 21.492 1.002 21.611 C 1.001 21.73 1.097 21.828 1.217 21.828 C 1.336 21.828 1.433 21.731 1.432 21.611 C 1.433 21.491 1.336 21.394 1.217 21.394 M 4.065 7.361 C 4.497 7.361 4.768 6.893 4.552 6.518 C 4.336 6.144 3.795 6.143 3.578 6.518 C 3.529 6.603 3.503 6.701 3.503 6.799 C 3.503 7.11 3.754 7.361 4.065 7.361 M 1.217 24.689 C 1.098 24.689 1.002 24.786 1.002 24.904 C 1.002 25.023 1.098 25.12 1.217 25.12 C 1.336 25.12 1.432 25.023 1.432 24.904 C 1.432 24.785 1.336 24.689 1.217 24.689 M 1.217 18.102 C 1.097 18.103 1.001 18.2 1.002 18.319 C 1.001 18.439 1.097 18.536 1.217 18.537 C 1.336 18.536 1.433 18.439 1.432 18.319 C 1.433 18.2 1.336 18.102 1.217 18.102 M 6.914 12.286 C 7.347 12.288 7.619 11.819 7.404 11.443 C 7.189 11.067 6.647 11.066 6.429 11.44 C 6.379 11.526 6.353 11.624 6.353 11.723 C 6.352 12.034 6.603 12.286 6.914 12.286 M 21.067 7.015 C 21.233 7.014 21.335 6.833 21.25 6.69 C 21.165 6.547 20.958 6.55 20.877 6.694 C 20.858 6.726 20.849 6.763 20.849 6.8 C 20.849 6.92 20.947 7.016 21.067 7.015 M 12.524 5.371 C 12.692 5.371 12.796 5.19 12.712 5.045 C 12.629 4.9 12.42 4.9 12.336 5.045 C 12.317 5.078 12.307 5.115 12.307 5.154 C 12.307 5.274 12.404 5.371 12.524 5.371 M 21.067 3.723 C 21.233 3.722 21.335 3.541 21.25 3.398 C 21.165 3.255 20.958 3.257 20.877 3.402 C 20.858 3.434 20.849 3.471 20.849 3.508 C 20.849 3.628 20.947 3.724 21.067 3.723 M 21.067 13.602 C 21.234 13.602 21.339 13.42 21.255 13.275 C 21.171 13.13 20.961 13.13 20.878 13.276 C 20.859 13.309 20.849 13.346 20.849 13.384 C 20.849 13.504 20.946 13.602 21.067 13.602 M 20.98 17.236 C 21.413 17.236 21.683 16.768 21.467 16.393 C 21.251 16.018 20.71 16.018 20.494 16.393 C 20.444 16.478 20.418 16.575 20.418 16.674 C 20.418 16.984 20.67 17.236 20.98 17.236 M 21.067 10.307 C 21.233 10.305 21.335 10.124 21.25 9.981 C 21.165 9.838 20.958 9.841 20.877 9.985 C 20.858 10.018 20.849 10.054 20.849 10.091 C 20.849 10.211 20.947 10.307 21.067 10.307 M 26.679 7.361 C 27.111 7.361 27.382 6.893 27.166 6.518 C 26.95 6.143 26.409 6.143 26.192 6.518 C 26.143 6.603 26.117 6.7 26.117 6.799 C 26.117 7.11 26.369 7.361 26.679 7.361 M 29.526 8.663 C 29.692 8.663 29.796 8.483 29.713 8.339 C 29.63 8.196 29.423 8.196 29.34 8.339 C 29.321 8.372 29.311 8.409 29.311 8.447 C 29.311 8.566 29.407 8.662 29.526 8.663 M 23.827 9.009 C 24.261 9.01 24.534 8.542 24.319 8.165 C 24.103 7.788 23.561 7.786 23.342 8.161 C 23.292 8.247 23.265 8.345 23.266 8.445 C 23.265 8.756 23.517 9.008 23.827 9.009 M 23.83 5.371 C 23.997 5.374 24.105 5.195 24.024 5.048 C 23.942 4.902 23.733 4.898 23.647 5.042 C 23.627 5.076 23.616 5.114 23.616 5.154 C 23.615 5.273 23.711 5.37 23.83 5.371 M 23.827 18.843 C 24.261 18.845 24.534 18.376 24.319 17.999 C 24.103 17.622 23.561 17.62 23.342 17.995 C 23.292 18.081 23.266 18.179 23.266 18.279 C 23.265 18.59 23.516 18.842 23.827 18.843 M 18.219 2.079 C 18.386 2.079 18.491 1.898 18.407 1.753 C 18.324 1.608 18.115 1.608 18.031 1.753 C 18.012 1.786 18.002 1.824 18.002 1.862 C 18.002 1.982 18.099 2.08 18.219 2.08 M 18.219 5.371 C 18.386 5.371 18.491 5.19 18.407 5.045 C 18.324 4.9 18.115 4.9 18.031 5.045 C 18.012 5.078 18.002 5.116 18.002 5.154 C 18.002 5.274 18.099 5.371 18.219 5.371 M 15.372 7.015 C 15.538 7.013 15.64 6.832 15.555 6.689 C 15.47 6.547 15.263 6.549 15.182 6.694 C 15.163 6.726 15.154 6.762 15.154 6.799 C 15.155 6.919 15.252 7.016 15.372 7.015 M 15.372 10.307 C 15.538 10.305 15.64 10.124 15.555 9.981 C 15.47 9.838 15.263 9.841 15.182 9.985 C 15.163 10.018 15.154 10.054 15.154 10.091 C 15.155 10.211 15.252 10.307 15.372 10.307 M 15.372 14.117 C 15.805 14.119 16.077 13.651 15.862 13.276 C 15.647 12.9 15.106 12.898 14.888 13.272 C 14.838 13.358 14.812 13.456 14.812 13.555 C 14.812 13.865 15.062 14.117 15.372 14.117 M 12.524 2.079 C 12.692 2.079 12.796 1.898 12.712 1.753 C 12.629 1.608 12.42 1.608 12.336 1.753 C 12.317 1.786 12.307 1.824 12.307 1.862 C 12.307 1.982 12.404 2.08 12.524 2.08 M 15.372 3.724 C 15.538 3.722 15.64 3.541 15.555 3.398 C 15.47 3.255 15.263 3.258 15.182 3.402 C 15.163 3.435 15.154 3.471 15.154 3.508 C 15.155 3.628 15.252 3.724 15.372 3.724 M 18.219 11.955 C 18.387 11.955 18.492 11.774 18.408 11.628 C 18.325 11.483 18.115 11.483 18.031 11.628 C 18.012 11.661 18.002 11.699 18.002 11.737 C 18.002 11.857 18.099 11.955 18.219 11.955 M 15.372 0.432 C 15.492 0.433 15.589 0.336 15.589 0.216 C 15.589 0.097 15.491 0.001 15.372 0.001 C 15.252 0 15.155 0.097 15.154 0.216 C 15.154 0.336 15.252 0.433 15.372 0.432 M 18.219 8.663 C 18.385 8.662 18.487 8.481 18.403 8.338 C 18.319 8.195 18.111 8.197 18.03 8.341 C 18.011 8.374 18.002 8.41 18.002 8.448 C 18.002 8.567 18.1 8.664 18.219 8.663 M 18.135 15.504 C 18.567 15.506 18.839 15.038 18.624 14.663 C 18.409 14.287 17.869 14.285 17.651 14.659 C 17.601 14.745 17.575 14.843 17.575 14.942 C 17.574 15.252 17.825 15.504 18.135 15.504 M 9.677 29.536 C 9.509 29.536 9.404 29.717 9.488 29.863 C 9.572 30.008 9.781 30.008 9.865 29.863 C 9.884 29.83 9.894 29.792 9.894 29.754 C 9.894 29.634 9.797 29.537 9.677 29.536 M 23.83 20.993 C 23.396 20.991 23.124 21.459 23.339 21.835 C 23.555 22.211 24.096 22.213 24.314 21.839 C 24.364 21.753 24.391 21.655 24.391 21.555 C 24.391 21.245 24.14 20.993 23.83 20.993 M 4.02 12.623 C 3.285 12.618 2.82 13.41 3.184 14.05 C 3.547 14.689 4.466 14.695 4.838 14.061 C 4.923 13.914 4.969 13.748 4.969 13.578 C 4.971 13.052 4.546 12.624 4.02 12.623 M 23.83 14.437 C 23.396 14.436 23.124 14.904 23.339 15.28 C 23.555 15.656 24.096 15.658 24.314 15.283 C 24.364 15.197 24.391 15.1 24.391 15 C 24.391 14.69 24.14 14.438 23.83 14.437 M 23.83 11.16 C 23.396 11.159 23.124 11.627 23.339 12.003 C 23.555 12.379 24.096 12.381 24.314 12.007 C 24.364 11.92 24.391 11.823 24.391 11.723 C 24.391 11.413 24.14 11.161 23.83 11.16 M 26.723 25.378 C 25.99 25.374 25.528 26.166 25.891 26.803 C 26.255 27.44 27.172 27.444 27.542 26.811 C 27.627 26.665 27.671 26.499 27.671 26.33 C 27.672 25.805 27.248 25.379 26.723 25.378 M 23.827 27.545 C 23.395 27.545 23.124 28.014 23.341 28.388 C 23.557 28.763 24.098 28.763 24.314 28.388 C 24.364 28.303 24.389 28.206 24.39 28.107 C 24.39 27.797 24.138 27.545 23.827 27.545 M 21.067 29.535 C 20.9 29.535 20.795 29.716 20.878 29.862 C 20.962 30.007 21.171 30.007 21.255 29.862 C 21.275 29.829 21.285 29.791 21.285 29.753 C 21.284 29.633 21.187 29.536 21.067 29.535 M 18.263 17.324 C 17.53 17.322 17.069 18.115 17.434 18.751 C 17.799 19.388 18.716 19.39 19.084 18.756 C 19.169 18.611 19.213 18.445 19.213 18.277 C 19.214 17.752 18.789 17.325 18.263 17.324 M 20.98 25.942 C 20.546 25.941 20.273 26.409 20.489 26.786 C 20.704 27.163 21.247 27.165 21.465 26.79 C 21.515 26.704 21.542 26.606 21.542 26.506 C 21.542 26.195 21.291 25.943 20.98 25.942 M 21.197 19.057 C 20.464 19.054 20.002 19.846 20.366 20.483 C 20.73 21.12 21.646 21.124 22.016 20.49 C 22.101 20.344 22.146 20.179 22.146 20.01 C 22.147 19.485 21.722 19.058 21.197 19.057 M 21.197 22.243 C 20.465 22.241 20.006 23.033 20.37 23.668 C 20.734 24.303 21.649 24.305 22.017 23.672 C 22.101 23.527 22.146 23.362 22.146 23.194 C 22.146 22.67 21.722 22.244 21.197 22.243 M 29.526 21.394 C 29.359 21.392 29.253 21.573 29.335 21.718 C 29.418 21.864 29.627 21.866 29.712 21.722 C 29.731 21.688 29.742 21.65 29.742 21.611 C 29.742 21.492 29.646 21.395 29.526 21.394 M 18.263 20.507 C 17.53 20.505 17.069 21.298 17.434 21.934 C 17.799 22.57 18.716 22.573 19.084 21.939 C 19.169 21.793 19.213 21.628 19.213 21.46 C 19.214 20.935 18.789 20.508 18.263 20.507 M 29.526 18.102 C 29.359 18.101 29.253 18.281 29.335 18.427 C 29.418 18.573 29.627 18.574 29.712 18.43 C 29.731 18.397 29.742 18.359 29.742 18.32 C 29.742 18.2 29.646 18.103 29.526 18.102 M 29.526 11.519 C 29.359 11.518 29.252 11.698 29.335 11.844 C 29.417 11.99 29.626 11.992 29.712 11.848 C 29.731 11.814 29.742 11.776 29.742 11.737 C 29.742 11.618 29.646 11.52 29.526 11.519 M 26.723 22.175 C 25.99 22.171 25.528 22.963 25.891 23.6 C 26.255 24.237 27.172 24.241 27.542 23.608 C 27.627 23.462 27.671 23.296 27.671 23.127 C 27.672 22.602 27.248 22.176 26.723 22.175 M 29.526 14.81 C 29.359 14.809 29.253 14.989 29.335 15.135 C 29.418 15.281 29.627 15.282 29.712 15.138 C 29.732 15.105 29.742 15.067 29.742 15.028 C 29.742 14.908 29.646 14.811 29.526 14.81 M 29.526 24.689 C 29.361 24.689 29.257 24.869 29.34 25.012 C 29.423 25.156 29.63 25.156 29.713 25.012 C 29.732 24.979 29.742 24.942 29.742 24.904 C 29.742 24.786 29.645 24.689 29.526 24.689 M 26.723 15.81 C 25.99 15.806 25.528 16.598 25.891 17.235 C 26.255 17.872 27.172 17.876 27.542 17.243 C 27.627 17.097 27.671 16.931 27.671 16.762 C 27.672 16.237 27.248 15.811 26.723 15.81 M 26.723 18.992 C 25.991 18.99 25.531 19.782 25.896 20.417 C 26.26 21.052 27.175 21.054 27.543 20.421 C 27.627 20.276 27.671 20.111 27.671 19.943 C 27.672 19.419 27.247 18.993 26.723 18.992 M 26.723 12.623 C 25.988 12.618 25.523 13.41 25.886 14.05 C 26.249 14.689 27.168 14.695 27.54 14.061 C 27.626 13.914 27.671 13.748 27.671 13.578 C 27.673 13.052 27.249 12.625 26.723 12.623 M 26.723 9.44 C 25.99 9.437 25.528 10.229 25.891 10.866 C 26.255 11.503 27.172 11.507 27.542 10.873 C 27.627 10.727 27.671 10.562 27.671 10.393 C 27.672 9.868 27.248 9.442 26.723 9.44 M 23.83 24.268 C 23.396 24.267 23.124 24.735 23.339 25.111 C 23.555 25.487 24.096 25.489 24.314 25.114 C 24.364 25.028 24.391 24.931 24.391 24.831 C 24.391 24.521 24.14 24.269 23.83 24.268 M 9.503 25.942 C 9.069 25.939 8.795 26.407 9.009 26.784 C 9.224 27.162 9.766 27.165 9.986 26.791 C 10.037 26.704 10.063 26.606 10.063 26.506 C 10.065 26.195 9.814 25.943 9.503 25.942 M 9.63 19.057 C 8.897 19.054 8.435 19.846 8.8 20.483 C 9.164 21.119 10.081 21.123 10.45 20.489 C 10.535 20.344 10.579 20.178 10.579 20.01 C 10.58 19.484 10.155 19.058 9.63 19.057 M 9.63 22.243 C 8.898 22.241 8.439 23.033 8.804 23.668 C 9.169 24.303 10.084 24.304 10.451 23.671 C 10.535 23.526 10.579 23.362 10.579 23.194 C 10.58 22.669 10.155 22.244 9.63 22.243 M 12.524 27.892 C 12.358 27.893 12.256 28.074 12.34 28.217 C 12.424 28.36 12.632 28.358 12.714 28.214 C 12.732 28.181 12.742 28.145 12.742 28.107 C 12.741 27.988 12.644 27.891 12.524 27.892 M 12.524 31.183 C 12.358 31.184 12.256 31.365 12.34 31.508 C 12.424 31.651 12.632 31.649 12.714 31.505 C 12.732 31.472 12.742 31.436 12.742 31.398 C 12.741 31.279 12.644 31.182 12.524 31.183 M 18.134 24.209 C 17.702 24.208 17.43 24.675 17.645 25.05 C 17.86 25.426 18.4 25.428 18.618 25.054 C 18.668 24.968 18.694 24.871 18.694 24.771 C 18.695 24.462 18.444 24.21 18.134 24.209 M 4.02 9.44 C 3.287 9.437 2.825 10.229 3.189 10.866 C 3.553 11.502 4.469 11.507 4.839 10.873 C 4.924 10.727 4.969 10.562 4.969 10.393 C 4.97 9.868 4.545 9.441 4.02 9.44 M 6.914 25.394 C 7.347 25.396 7.619 24.927 7.404 24.551 C 7.189 24.175 6.647 24.173 6.429 24.548 C 6.379 24.634 6.353 24.732 6.353 24.831 C 6.352 25.142 6.603 25.394 6.914 25.394 M 6.916 17.715 C 6.482 17.714 6.209 18.183 6.425 18.559 C 6.64 18.936 7.183 18.938 7.401 18.563 C 7.452 18.477 7.478 18.379 7.478 18.279 C 7.478 17.968 7.227 17.716 6.916 17.715 M 12.609 24.294 C 12.175 24.291 11.9 24.759 12.115 25.137 C 12.329 25.514 12.872 25.518 13.091 25.143 C 13.142 25.057 13.169 24.958 13.169 24.858 C 13.17 24.548 12.919 24.295 12.609 24.294 M 6.916 27.545 C 6.484 27.544 6.213 28.013 6.429 28.387 C 6.645 28.762 7.186 28.763 7.402 28.388 C 7.452 28.303 7.478 28.206 7.478 28.107 C 7.478 27.796 7.227 27.545 6.916 27.545 M 6.916 7.881 C 6.482 7.879 6.209 8.348 6.424 8.724 C 6.64 9.101 7.182 9.103 7.401 8.728 C 7.451 8.642 7.478 8.545 7.478 8.445 C 7.478 8.134 7.227 7.882 6.916 7.881 M 15.414 19.125 C 14.682 19.123 14.223 19.914 14.587 20.549 C 14.952 21.184 15.866 21.186 16.234 20.553 C 16.318 20.408 16.362 20.243 16.362 20.076 C 16.363 19.551 15.938 19.126 15.414 19.125 M 15.414 15.938 C 14.68 15.935 14.219 16.726 14.582 17.363 C 14.946 18 15.863 18.004 16.232 17.371 C 16.317 17.225 16.362 17.059 16.362 16.891 C 16.363 16.366 15.939 15.939 15.414 15.938 M 18.219 27.892 C 18.053 27.893 17.951 28.073 18.035 28.216 C 18.119 28.36 18.327 28.358 18.409 28.213 C 18.427 28.181 18.437 28.144 18.437 28.107 C 18.436 27.988 18.339 27.891 18.219 27.892 M 18.219 31.182 C 18.053 31.184 17.951 31.364 18.035 31.507 C 18.119 31.651 18.327 31.649 18.409 31.504 C 18.427 31.472 18.437 31.435 18.437 31.398 C 18.436 31.279 18.339 31.182 18.219 31.182 M 15.372 22.824 C 14.938 22.821 14.664 23.289 14.878 23.666 C 15.092 24.043 15.635 24.047 15.855 23.673 C 15.905 23.586 15.932 23.488 15.932 23.387 C 15.933 23.077 15.682 22.824 15.372 22.824 M 12.48 20.506 C 11.746 20.505 11.287 21.298 11.652 21.934 C 12.018 22.57 12.934 22.572 13.302 21.937 C 13.386 21.792 13.431 21.627 13.431 21.459 C 13.431 20.934 13.006 20.507 12.48 20.506 M 12.48 17.324 C 11.746 17.322 11.287 18.116 11.652 18.752 C 12.018 19.387 12.934 19.389 13.302 18.755 C 13.386 18.609 13.431 18.445 13.431 18.277 C 13.431 17.751 13.006 17.324 12.48 17.324 M 15.372 32.826 C 15.205 32.826 15.1 33.007 15.184 33.152 C 15.267 33.297 15.477 33.297 15.56 33.152 C 15.579 33.119 15.589 33.082 15.589 33.044 C 15.589 32.924 15.492 32.826 15.372 32.826 M 15.372 29.535 C 15.204 29.534 15.099 29.716 15.183 29.861 C 15.267 30.006 15.476 30.006 15.56 29.861 C 15.579 29.828 15.589 29.79 15.589 29.752 C 15.589 29.632 15.492 29.535 15.372 29.535 M 15.372 26.244 C 15.205 26.244 15.1 26.425 15.184 26.57 C 15.267 26.715 15.477 26.715 15.56 26.57 C 15.579 26.537 15.589 26.499 15.589 26.461 C 15.589 26.341 15.492 26.244 15.372 26.244"
      fill="currentColor"
    ></path>
</svg>