<?xml version="1.0" encoding="utf-8"?>
<svg viewBox="0 0 222.96 258" xmlns="http://www.w3.org/2000/svg">
  <defs>
    <style>.c{fill:#221f20;}</style>
  </defs>
  <circle class="c" cx="2" cy="193.149" r="3" style="fill: rgb(130, 5, 168);"/>
  <circle class="c" cx="2" cy="167.707" r="3" style="fill: rgb(130, 5, 168);"/>
  <circle class="c" cx="2" cy="142.273" r="3" style="fill: rgb(130, 5, 168);"/>
  <circle class="c" cx="2" cy="116.686" r="3" style="fill: rgb(130, 5, 168);"/>
  <circle class="c" cx="2" cy="65.633" r="3" style="fill: rgb(130, 5, 168);"/>
  <circle class="c" cx="2" cy="91.043" r="3" style="fill: rgb(130, 5, 168);"/>
  <circle class="c" cx="24" cy="52.071" r="7" style="fill: rgb(130, 5, 168);"/>
  <circle class="c" cx="24" cy="80.579" r="11" style="fill: rgb(130, 5, 168);"/>
  <circle class="c" cx="24" cy="105.149" r="11" style="fill: rgb(130, 5, 168);"/>
  <circle class="c" cx="24" cy="129.745" r="11" style="fill: rgb(130, 5, 168);"/>
  <circle class="c" cx="24" cy="154.362" r="11" style="fill: rgb(130, 5, 168);"/>
  <circle class="c" cx="24" cy="179.225" r="11" style="fill: rgb(130, 5, 168);"/>
  <circle class="c" cx="24" cy="203.898" r="11" style="fill: rgb(130, 5, 168);"/>
  <circle class="c" cx="47" cy="66.241" r="7" style="fill: rgb(130, 5, 168);"/>
  <circle class="c" cx="47" cy="91.424" r="7" style="fill: rgb(130, 5, 168);"/>
  <circle class="c" cx="47" cy="117.086" r="7" style="fill: rgb(130, 5, 168);"/>
  <circle class="c" cx="47" cy="141.736" r="7" style="fill: rgb(130, 5, 168);"/>
  <circle class="c" cx="47" cy="167.325" r="7" style="fill: rgb(130, 5, 168);"/>
  <circle class="c" cx="47" cy="192.909" r="7" style="fill: rgb(130, 5, 168);"/>
  <circle class="c" cx="47" cy="218.112" r="7" style="fill: rgb(130, 5, 168);"/>
  <circle class="c" cx="47" cy="40.029" r="3" style="fill: rgb(130, 5, 168);"/>
  <circle class="c" cx="67" cy="155.044" r="11" style="fill: rgb(130, 5, 168);"/>
  <circle class="c" cx="67" cy="179.72" r="11" style="fill: rgb(130, 5, 168);"/>
  <circle class="c" cx="67" cy="128.687" r="7" style="fill: rgb(130, 5, 168);"/>
  <circle class="c" cx="67" cy="205.624" r="7" style="fill: rgb(130, 5, 168);"/>
  <circle class="c" cx="67" cy="103.684" r="3" style="fill: rgb(130, 5, 168);"/>
  <circle class="c" cx="67" cy="230.783" r="3" style="fill: rgb(130, 5, 168);"/>
  <circle class="c" cx="67" cy="27.268" r="3" style="fill: rgb(130, 5, 168);"/>
  <circle class="c" cx="67" cy="52.848" r="3" style="fill: rgb(130, 5, 168);"/>
  <circle class="c" cx="67" cy="78.148" r="3" style="fill: rgb(130, 5, 168);"/>
  <circle class="c" cx="89" cy="65.472" r="3" style="fill: rgb(130, 5, 168);"/>
  <circle class="c" cx="89" cy="39.549" r="3" style="fill: rgb(130, 5, 168);"/>
  <circle class="c" cx="89" cy="14.612" r="3" style="fill: rgb(130, 5, 168);"/>
  <circle class="c" cx="89" cy="90.783" r="3" style="fill: rgb(130, 5, 168);"/>
  <circle class="c" cx="89" cy="192.688" r="7" style="fill: rgb(130, 5, 168);"/>
  <circle class="c" cx="89" cy="243.757" r="3" style="fill: rgb(130, 5, 168);"/>
  <circle class="c" cx="89" cy="217.971" r="3" style="fill: rgb(130, 5, 168);"/>
  <circle class="c" cx="89" cy="141.446" r="11" style="fill: rgb(130, 5, 168);"/>
  <circle class="c" cx="89" cy="166.36" r="11" style="fill: rgb(130, 5, 168);"/>
  <circle class="c" cx="89" cy="115.984" r="7" style="fill: rgb(130, 5, 168);"/>
  <circle class="c" cx="111" cy="181.209" r="7" style="fill: rgb(130, 5, 168);"/>
  <circle class="c" cx="111" cy="256.124" r="3" style="fill: rgb(130, 5, 168);"/>
  <circle class="c" cx="111" cy="230.825" r="3" style="fill: rgb(130, 5, 168);"/>
  <circle class="c" cx="111" cy="27.1" r="3" style="fill: rgb(130, 5, 168);"/>
  <circle class="c" cx="111" cy="52.755" r="3" style="fill: rgb(130, 5, 168);"/>
  <circle class="c" cx="111" cy="78.141" r="3" style="fill: rgb(130, 5, 168);"/>
  <circle class="c" cx="111" cy="1.796" r="3" style="fill: rgb(130, 5, 168);"/>
  <circle class="c" cx="111" cy="205.038" r="3" style="fill: rgb(130, 5, 168);"/>
  <circle class="c" cx="111" cy="130.852" r="11" style="fill: rgb(130, 5, 168);"/>
  <circle class="c" cx="111" cy="155.726" r="11" style="fill: rgb(130, 5, 168);"/>
  <circle class="c" cx="111" cy="104.893" r="7" style="fill: rgb(130, 5, 168);"/>
  <circle class="c" cx="133" cy="14.263" r="3" style="fill: rgb(130, 5, 168);"/>
  <circle class="c" cx="133" cy="40.106" r="3" style="fill: rgb(130, 5, 168);"/>
  <circle class="c" cx="133" cy="65.508" r="3" style="fill: rgb(130, 5, 168);"/>
  <circle class="c" cx="133" cy="91.017" r="3" style="fill: rgb(130, 5, 168);"/>
  <circle class="c" cx="133" cy="192.369" r="7" style="fill: rgb(130, 5, 168);"/>
  <circle class="c" cx="133" cy="217.882" r="3" style="fill: rgb(130, 5, 168);"/>
  <circle class="c" cx="133" cy="243.292" r="3" style="fill: rgb(130, 5, 168);"/>
  <circle class="c" cx="133" cy="115.924" r="7" style="fill: rgb(130, 5, 168);"/>
  <circle class="c" cx="133" cy="166.197" r="11" style="fill: rgb(130, 5, 168);"/>
  <circle class="c" cx="133" cy="141.963" r="11" style="fill: rgb(130, 5, 168);"/>
  <circle class="c" cx="155" cy="78.278" r="3" style="fill: rgb(130, 5, 168);"/>
  <circle class="c" cx="155" cy="103.97" r="3" style="fill: rgb(130, 5, 168);"/>
  <circle class="c" cx="155" cy="27.212" r="3" style="fill: rgb(130, 5, 168);"/>
  <circle class="c" cx="155" cy="52.861" r="3" style="fill: rgb(130, 5, 168);"/>
  <circle class="c" cx="155" cy="205.743" r="7" style="fill: rgb(130, 5, 168);"/>
  <circle class="c" cx="155" cy="230.804" r="3" style="fill: rgb(130, 5, 168);"/>
  <circle class="c" cx="155" cy="154.812" r="11" style="fill: rgb(130, 5, 168);"/>
  <circle class="c" cx="155" cy="179.818" r="11" style="fill: rgb(130, 5, 168);"/>
  <circle class="c" cx="155" cy="129.401" r="7" style="fill: rgb(130, 5, 168);"/>
  <circle class="c" cx="177" cy="39.904" r="3" style="fill: rgb(130, 5, 168);"/>
  <circle class="c" cx="177" cy="65.466" r="7" style="fill: rgb(130, 5, 168);"/>
  <circle class="c" cx="177" cy="90.649" r="7" style="fill: rgb(130, 5, 168);"/>
  <circle class="c" cx="177" cy="116.44" r="7" style="fill: rgb(130, 5, 168);"/>
  <circle class="c" cx="177" cy="141.809" r="7" style="fill: rgb(130, 5, 168);"/>
  <circle class="c" cx="177" cy="166.523" r="7" style="fill: rgb(130, 5, 168);"/>
  <circle class="c" cx="177" cy="192.623" r="7" style="fill: rgb(130, 5, 168);"/>
  <circle class="c" cx="177" cy="217.769" r="7" style="fill: rgb(130, 5, 168);"/>
  <circle class="c" cx="199" cy="52.751" r="7" style="fill: rgb(130, 5, 168);"/>
  <circle class="c" cx="199" cy="80.656" r="11" style="fill: rgb(130, 5, 168);"/>
  <circle class="c" cx="199" cy="105.095" r="11" style="fill: rgb(130, 5, 168);"/>
  <circle class="c" cx="199" cy="129.967" r="11" style="fill: rgb(130, 5, 168);"/>
  <circle class="c" cx="199" cy="154.945" r="11" style="fill: rgb(130, 5, 168);"/>
  <circle class="c" cx="199" cy="179.56" r="11" style="fill: rgb(130, 5, 168);"/>
  <circle class="c" cx="199" cy="203.922" r="11" style="fill: rgb(130, 5, 168);"/>
  <circle class="c" cx="221" cy="65.628" r="3" style="fill: rgb(130, 5, 168);"/>
  <circle class="c" cx="221" cy="91.143" r="3" style="fill: rgb(130, 5, 168);"/>
  <circle class="c" cx="221" cy="116.537" r="3" style="fill: rgb(130, 5, 168);"/>
  <circle class="c" cx="221" cy="142.179" r="3" style="fill: rgb(130, 5, 168);"/>
  <circle class="c" cx="221" cy="167.364" r="3" style="fill: rgb(130, 5, 168);"/>
  <circle class="c" cx="221" cy="193.171" r="3" style="fill: rgb(130, 5, 168);"/>
</svg>