<svg width="40" height="40" viewBox="0 0 40 40" fill="none" xmlns="http://www.w3.org/2000/svg">
  <rect x="4.5" y="4.5" width="31" height="31" rx="15.5" fill="#E0E0E0"/>
  <rect x="4.5" y="4.5" width="31" height="31" rx="15.5" stroke="#B6B6B6"/>
  <g clip-path="url(#clip0_3229_19779)">
    <path d="M15.25 24.625H21.75V23.125H15.25V24.625ZM15.25 20.75H24.75V19.25H15.25V20.75ZM15.25 16.875H24.75V15.375H15.25V16.875ZM11.5 28.5V11.5H17.75C17.8167 10.95 18.0627 10.479 18.488 10.087C18.9127 9.69567 19.4167 9.5 20 9.5C20.6 9.5 21.1083 9.69567 21.525 10.087C21.9417 10.479 22.1833 10.95 22.25 11.5H28.5V28.5H11.5ZM20 12.35C20.2167 12.35 20.396 12.279 20.538 12.137C20.6793 11.9957 20.75 11.8167 20.75 11.6C20.75 11.3833 20.6793 11.204 20.538 11.062C20.396 10.9207 20.2167 10.85 20 10.85C19.7833 10.85 19.6043 10.9207 19.463 11.062C19.321 11.204 19.25 11.3833 19.25 11.6C19.25 11.8167 19.321 11.9957 19.463 12.137C19.6043 12.279 19.7833 12.35 20 12.35Z" fill="#575757"/>
  </g>
  <g clip-path="url(#clip1_3229_19779)">
    <rect x="24" width="16" height="16" rx="8" fill="#DDDDDD"/>
    <path d="M31.9954 11.9831C32.1703 11.9831 32.3185 11.9239 32.44 11.8055C32.5614 11.6872 32.6221 11.5405 32.6221 11.3656C32.6221 11.1906 32.563 11.0424 32.4446 10.921C32.3262 10.7995 32.1796 10.7388 32.0046 10.7388C31.8297 10.7388 31.6815 10.798 31.56 10.9163C31.4386 11.0347 31.3779 11.1814 31.3779 11.3563C31.3779 11.5313 31.437 11.6795 31.5554 11.8009C31.6737 11.9224 31.8204 11.9831 31.9954 11.9831ZM31.4286 9.12257H32.5714V3.84784H31.4286V9.12257ZM32.0075 16C30.907 16 29.8705 15.7918 28.8981 15.3754C27.9256 14.959 27.0745 14.386 26.3446 13.6565C25.6147 12.9269 25.0415 12.0765 24.6249 11.1051C24.2083 10.1337 24 9.09583 24 7.99141C24 6.88696 24.2082 5.85219 24.6246 4.88709C25.041 3.92197 25.614 3.07449 26.3435 2.34462C27.0731 1.61475 27.9235 1.04151 28.8949 0.624904C29.8663 0.208302 30.9042 0 32.0086 0C33.113 0 34.1478 0.208207 35.1129 0.624618C36.078 1.04103 36.9255 1.614 37.6554 2.34352C38.3853 3.07306 38.9585 3.92181 39.3751 4.88975C39.7917 5.85769 40 6.89193 40 7.99246C40 9.09301 39.7918 10.1295 39.3754 11.1019C38.959 12.0744 38.386 12.9255 37.6565 13.6554C36.9269 14.3853 36.0782 14.9585 35.1102 15.3751C34.1423 15.7917 33.1081 16 32.0075 16Z" fill="#D36A66"/>
  </g>
  <rect x="24.5" y="0.5" width="15" height="15" rx="7.5" stroke="#B6B6B6"/>
  <defs>
    <clipPath id="clip0_3229_19779">
        <rect width="24" height="24" fill="white" transform="translate(8 8)"/>
    </clipPath>
    <clipPath id="clip1_3229_19779">
        <rect x="24" width="16" height="16" rx="8" fill="white"/>
    </clipPath>
  </defs>
</svg>