<svg width="37" height="36" viewBox="0 0 37 36" fill="none" xmlns="http://www.w3.org/2000/svg">
  <rect x="0.833496" y="4.5" width="31" height="31" rx="15.5" fill="#E0E0E0"/>
  <rect x="0.833496" y="4.5" width="31" height="31" rx="15.5" stroke="#B6B6B6"/>
  <g clip-path="url(#clip0_3232_15948)">
    <path d="M16.3335 28.9422C15.9322 28.9422 15.5774 28.8364 15.269 28.6249C14.9607 28.4134 14.745 28.1358 14.6219 27.7922H12.8335V23.0115C11.8245 22.4 11.0306 21.5801 10.4518 20.5519C9.87292 19.5237 9.5835 18.423 9.5835 17.25C9.5835 15.3679 10.238 13.7724 11.5469 12.4635C12.8559 11.1545 14.4514 10.5 16.3335 10.5C18.2155 10.5 19.811 11.1545 21.12 12.4635C22.429 13.7724 23.0834 15.3679 23.0834 17.25C23.0834 18.4436 22.794 19.5493 22.2152 20.5673C21.6363 21.5852 20.8424 22.4 19.8334 23.0115V27.7922H18.045C17.9219 28.1358 17.7062 28.4134 17.3979 28.6249C17.0896 28.8364 16.7348 28.9422 16.3335 28.9422ZM14.3335 26.2923H18.3335V25.3538H14.3335V26.2923ZM14.3335 24.4692H18.3335V23.5H14.3335V24.4692ZM15.7373 22H16.9296V19.0884L19.0719 16.9461L18.2335 16.1077L16.3335 18.0077L14.4335 16.1077L13.595 16.9461L15.7373 19.0884V22Z" fill="#575757"/>
  </g>
  <g clip-path="url(#clip1_3232_15948)">
    <rect x="20.3335" width="16" height="16" rx="8" fill="#DDDDDD"/>
    <path d="M28.3289 11.9831C28.5038 11.9831 28.652 11.9239 28.7735 11.8055C28.8949 11.6872 28.9556 11.5405 28.9556 11.3656C28.9556 11.1906 28.8964 11.0424 28.7781 10.921C28.6597 10.7995 28.5131 10.7388 28.3381 10.7388C28.1632 10.7388 28.015 10.798 27.8935 10.9163C27.7721 11.0347 27.7114 11.1814 27.7114 11.3563C27.7114 11.5313 27.7705 11.6795 27.8889 11.8009C28.0072 11.9224 28.1539 11.9831 28.3289 11.9831ZM27.7621 9.12257H28.9049V3.84784H27.7621V9.12257ZM28.341 16C27.2405 16 26.204 15.7918 25.2316 15.3754C24.2591 14.959 23.408 14.386 22.6781 13.6565C21.9482 12.9269 21.375 12.0765 20.9584 11.1051C20.5418 10.1337 20.3335 9.09583 20.3335 7.99141C20.3335 6.88696 20.5417 5.85219 20.9581 4.88709C21.3745 3.92197 21.9475 3.07449 22.677 2.34462C23.4066 1.61475 24.257 1.04151 25.2284 0.624904C26.1998 0.208302 27.2377 0 28.3421 0C29.4465 0 30.4813 0.208207 31.4464 0.624618C32.4115 1.04103 33.259 1.614 33.9889 2.34352C34.7188 3.07306 35.292 3.92181 35.7086 4.88975C36.1252 5.85769 36.3335 6.89193 36.3335 7.99246C36.3335 9.09301 36.1253 10.1295 35.7089 11.1019C35.2925 12.0744 34.7195 12.9255 33.99 13.6554C33.2604 14.3853 32.4117 14.9585 31.4437 15.3751C30.4758 15.7917 29.4416 16 28.341 16Z" fill="#D36A66"/>
  </g>
  <rect x="20.8335" y="0.5" width="15" height="15" rx="7.5" stroke="#B6B6B6"/>
  <defs>
    <clipPath id="clip0_3232_15948">
      <rect width="24" height="24" fill="white" transform="translate(4.3335 8)"/>
    </clipPath>
    <clipPath id="clip1_3232_15948">
      <rect x="20.3335" width="16" height="16" rx="8" fill="white"/>
    </clipPath>
  </defs>
</svg>
