<svg width="33" height="32" viewBox="0 0 33 32" fill="none" xmlns="http://www.w3.org/2000/svg">
  <rect x="0.833496" y="0.5" width="31" height="31" rx="15.5" fill="#E0E0E0"/>
  <rect x="0.833496" y="0.5" width="31" height="31" rx="15.5" stroke="#B6B6B6"/>
  <g clip-path="url(#clip0_3232_51)">
    <path d="M16.3335 24.9422C15.9322 24.9422 15.5774 24.8364 15.269 24.6249C14.9607 24.4134 14.745 24.1358 14.6219 23.7922H12.8335V19.0115C11.8245 18.4 11.0306 17.5801 10.4518 16.5519C9.87292 15.5237 9.5835 14.423 9.5835 13.25C9.5835 11.3679 10.238 9.77243 11.5469 8.46345C12.8559 7.15448 14.4514 6.5 16.3335 6.5C18.2155 6.5 19.811 7.15448 21.12 8.46345C22.429 9.77243 23.0834 11.3679 23.0834 13.25C23.0834 14.4436 22.794 15.5493 22.2152 16.5673C21.6363 17.5852 20.8424 18.4 19.8334 19.0115V23.7922H18.045C17.9219 24.1358 17.7062 24.4134 17.3979 24.6249C17.0896 24.8364 16.7348 24.9422 16.3335 24.9422ZM14.3335 22.2923H18.3335V21.3538H14.3335V22.2923ZM14.3335 20.4692H18.3335V19.5H14.3335V20.4692ZM15.7373 18H16.9296V15.0884L19.0719 12.9461L18.2335 12.1077L16.3335 14.0077L14.4335 12.1077L13.595 12.9461L15.7373 15.0884V18Z" fill="#575757"/>
  </g>
  <defs>
    <clipPath id="clip0_3232_51">
      <rect width="24" height="24" fill="white" transform="translate(4.3335 4)"/>
    </clipPath>
  </defs>
</svg>
