<svg width="40" height="40" viewBox="0 0 40 40" fill="none" xmlns="http://www.w3.org/2000/svg">
  <rect x="4.5" y="4.5" width="31" height="31" rx="15.5" fill="#E0E0E0"/>
  <rect x="4.5" y="4.5" width="31" height="31" rx="15.5" stroke="#B6B6B6"/>
  <g clip-path="url(#clip0_3229_19788)">
    <path d="M15.25 24.625H21.75V23.125H15.25V24.625ZM15.25 20.75H24.75V19.25H15.25V20.75ZM15.25 16.875H24.75V15.375H15.25V16.875ZM11.5 28.5V11.5H17.75C17.8167 10.95 18.0627 10.479 18.488 10.087C18.9127 9.69567 19.4167 9.5 20 9.5C20.6 9.5 21.1083 9.69567 21.525 10.087C21.9417 10.479 22.1833 10.95 22.25 11.5H28.5V28.5H11.5ZM20 12.35C20.2167 12.35 20.396 12.279 20.538 12.137C20.6793 11.9957 20.75 11.8167 20.75 11.6C20.75 11.3833 20.6793 11.204 20.538 11.062C20.396 10.9207 20.2167 10.85 20 10.85C19.7833 10.85 19.6043 10.9207 19.463 11.062C19.321 11.204 19.25 11.3833 19.25 11.6C19.25 11.8167 19.321 11.9957 19.463 12.137C19.6043 12.279 19.7833 12.35 20 12.35Z" fill="#575757"/>
  </g>
  <defs>
    <clipPath id="clip0_3229_19788">
      <rect width="24" height="24" fill="white" transform="translate(8 8)"/>
    </clipPath>
  </defs>
</svg>
