<svg xmlns="http://www.w3.org/2000/svg" viewBox="0 0 30 41">
  <g transform="translate(-614 -394)" stroke="none">
    <g transform="translate(-920 57)">
      <circle cx="2" cy="2" r="2" transform="translate(1547 374)" />
      <g>
        <circle cx="15" cy="15" r="15" transform="translate(1534 337)" />
        <path d="M4.879-2.121,7,7-2.121,4.879Z" transform="translate(1548.95 360.55) rotate(45)" />
      </g>
      <g transform="translate(1542 345)">
        <path d="M10.2,0A4.68,4.68,0,0,0,5.511,4.684a5.772,5.772,0,0,0,.276,1.653L0,12.124v2.755H2.755V13.226H4.409V11.573H6.062l2.48-2.48a5.2,5.2,0,0,0,1.653.276A4.684,4.684,0,0,0,10.2,0Zm1.378,4.96A1.624,1.624,0,0,1,9.92,3.307a1.653,1.653,0,1,1,3.307,0A1.624,1.624,0,0,1,11.573,4.96Z" transform="translate(0 0)" fill="#323232"/>
      </g>
    </g>
  </g>
</svg>
