<svg width="50" height="64" viewBox="0 0 50 64" fill="none" xmlns="http://www.w3.org/2000/svg">
<path fill-rule="evenodd" clip-rule="evenodd" d="M2.25976 63.7016C1.64257 63.7016 1.11132 63.4751 0.673823 63.0259C0.220703 62.5923 0.00195312 62.0571 0.00195312 61.4438V2.86572C0.00195312 2.24853 0.220703 1.71338 0.673833 1.28369C1.11133 0.83057 1.64258 0.60791 2.25977 0.60791H47.3145C47.9317 0.60791 48.4629 0.83057 48.9004 1.28369C49.3535 1.71338 49.5723 2.24853 49.5723 2.86572V61.4439C49.5723 62.0571 49.3535 62.5923 48.9004 63.0259C48.4629 63.4751 47.9317 63.7017 47.3145 63.7017L2.25976 63.7016ZM30.4238 50.1821C30.7363 50.1821 30.9863 50.2837 31.2129 50.5103C31.4316 50.7368 31.5566 51.0063 31.5566 51.3149V59.2017H45.0723V5.12744H4.50196V59.2017H18.0176V51.3149C18.0176 51.0064 18.1348 50.7368 18.3613 50.5103C18.5879 50.2837 18.8379 50.1821 19.1504 50.1821L30.4238 50.1821ZM37.1895 50.1821C36.877 50.1821 36.6113 50.061 36.3926 49.8579C36.1582 49.6274 36.0566 49.3618 36.0566 49.0532V46.7954C36.0566 46.4868 36.1582 46.2368 36.3926 46.0142C36.6113 45.7876 36.877 45.686 37.1895 45.686H39.4317C39.7363 45.686 40.002 45.7876 40.2285 46.0142C40.4551 46.2368 40.5567 46.4868 40.5567 46.7954V49.0532C40.5567 49.3618 40.4551 49.6274 40.2285 49.8579C40.002 50.061 39.7364 50.1821 39.4317 50.1821L37.1895 50.1821ZM10.1426 50.1821C9.83789 50.1821 9.57227 50.061 9.34571 49.8579C9.11915 49.6274 9.01759 49.3618 9.01759 49.0532V46.7954C9.01759 46.4868 9.11915 46.2368 9.34572 46.0142C9.57228 45.7876 9.83791 45.686 10.1426 45.686H12.3848C12.6973 45.686 12.9629 45.7876 13.1895 46.0142C13.416 46.2368 13.5176 46.4868 13.5176 46.7954V49.0532C13.5176 49.3618 13.4161 49.6274 13.1895 49.8579C12.9629 50.061 12.6973 50.1821 12.3848 50.1821L10.1426 50.1821ZM37.1895 41.1626C36.877 41.1626 36.6113 41.061 36.3926 40.8345C36.1582 40.6079 36.0566 40.3423 36.0566 40.0337V37.7915C36.0566 37.4868 36.1582 37.2173 36.3926 36.9946C36.6113 36.7681 36.877 36.6665 37.1895 36.6665H39.4317C39.7363 36.6665 40.002 36.7681 40.2285 36.9946C40.4551 37.2173 40.5567 37.4868 40.5567 37.7915V40.0337C40.5567 40.3423 40.4551 40.6079 40.2285 40.8345C40.002 41.0611 39.7364 41.1626 39.4317 41.1626L37.1895 41.1626ZM28.166 41.1626C27.8535 41.1626 27.5957 41.061 27.3613 40.8345C27.1348 40.6079 27.0332 40.3423 27.0332 40.0337V37.7915C27.0332 37.4868 27.1348 37.2173 27.3613 36.9946C27.5957 36.7681 27.8535 36.6665 28.166 36.6665H30.4238C30.7129 36.6665 30.9863 36.7681 31.2129 36.9946C31.4316 37.2173 31.5332 37.4868 31.5332 37.7915V40.0337C31.5332 40.3423 31.4316 40.6079 31.2129 40.8345C30.9863 41.0611 30.7129 41.1626 30.4238 41.1626L28.166 41.1626ZM19.1504 41.1626C18.8379 41.1626 18.5879 41.061 18.3613 40.8345C18.1348 40.6079 18.0176 40.3423 18.0176 40.0337V37.7915C18.0176 37.4868 18.1348 37.2173 18.3613 36.9946C18.5879 36.7681 18.8379 36.6665 19.1504 36.6665H21.4082C21.7207 36.6665 21.9785 36.7681 22.2051 36.9946C22.416 37.2173 22.541 37.4868 22.541 37.7915V40.0337C22.541 40.3423 22.416 40.6079 22.2051 40.8345C21.9785 41.0611 21.7207 41.1626 21.4082 41.1626L19.1504 41.1626ZM10.1426 41.1626C9.83789 41.1626 9.57227 41.061 9.34571 40.8345C9.11915 40.6079 9.01759 40.3423 9.01759 40.0337V37.7915C9.01759 37.4868 9.11915 37.2173 9.34572 36.9946C9.57228 36.7681 9.83791 36.6665 10.1426 36.6665H12.3848C12.6973 36.6665 12.9629 36.7681 13.1895 36.9946C13.416 37.2173 13.5176 37.4868 13.5176 37.7915V40.0337C13.5176 40.3423 13.4161 40.6079 13.1895 40.8345C12.9629 41.0611 12.6973 41.1626 12.3848 41.1626L10.1426 41.1626ZM37.1895 32.1626C36.877 32.1626 36.6113 32.0415 36.3926 31.8149C36.1582 31.6118 36.0566 31.3423 36.0566 31.0376V28.772C36.0566 28.4673 36.1582 28.1978 36.3926 27.9946C36.6113 27.7642 36.877 27.647 37.1895 27.647H39.4317C39.7363 27.647 40.002 27.7642 40.2285 27.9946C40.4551 28.1978 40.5567 28.4673 40.5567 28.772V31.0376C40.5567 31.3423 40.4551 31.6118 40.2285 31.8149C40.002 32.0415 39.7364 32.1626 39.4317 32.1626L37.1895 32.1626ZM28.166 32.1626C27.8535 32.1626 27.5957 32.0415 27.3613 31.8149C27.1348 31.6118 27.0332 31.3423 27.0332 31.0376V28.772C27.0332 28.4673 27.1348 28.1978 27.3613 27.9946C27.5957 27.7642 27.8535 27.647 28.166 27.647H30.4238C30.7129 27.647 30.9863 27.7642 31.2129 27.9946C31.4316 28.1978 31.5332 28.4673 31.5332 28.772V31.0376C31.5332 31.3423 31.4316 31.6118 31.2129 31.8149C30.9863 32.0415 30.7129 32.1626 30.4238 32.1626L28.166 32.1626ZM19.1504 32.1626C18.8379 32.1626 18.5879 32.0415 18.3613 31.8149C18.1348 31.6118 18.0176 31.3423 18.0176 31.0376V28.772C18.0176 28.4673 18.1348 28.1978 18.3613 27.9946C18.5879 27.7642 18.8379 27.647 19.1504 27.647H21.4082C21.7207 27.647 21.9785 27.7642 22.2051 27.9946C22.416 28.1978 22.541 28.4673 22.541 28.772V31.0376C22.541 31.3423 22.416 31.6118 22.2051 31.8149C21.9785 32.0415 21.7207 32.1626 21.4082 32.1626L19.1504 32.1626ZM10.1426 32.1626C9.83789 32.1626 9.57227 32.0415 9.34571 31.8149C9.11915 31.6118 9.01759 31.3423 9.01759 31.0376V28.772C9.01759 28.4673 9.11915 28.1978 9.34572 27.9946C9.57228 27.7642 9.83791 27.647 10.1426 27.647H12.3848C12.6973 27.647 12.9629 27.7642 13.1895 27.9946C13.416 28.1978 13.5176 28.4673 13.5176 28.772V31.0376C13.5176 31.3423 13.4161 31.6118 13.1895 31.8149C12.9629 32.0415 12.6973 32.1626 12.3848 32.1626L10.1426 32.1626ZM37.1895 23.1431C36.877 23.1431 36.6113 23.022 36.3926 22.8149C36.1582 22.5923 36.0566 22.3228 36.0566 22.0181V19.7525C36.0566 19.4439 36.1582 19.2017 36.3926 18.9751C36.6113 18.7446 36.877 18.6236 37.1895 18.6236H39.4317C39.7363 18.6236 40.002 18.7446 40.2285 18.9751C40.4551 19.1782 40.5567 19.4439 40.5567 19.7525V22.0181C40.5567 22.3228 40.4551 22.5923 40.2285 22.815C40.002 23.022 39.7364 23.1431 39.4317 23.1431L37.1895 23.1431ZM28.166 23.1431C27.8535 23.1431 27.5957 23.022 27.3613 22.8149C27.1348 22.5923 27.0332 22.3228 27.0332 22.0181V19.7525C27.0332 19.4439 27.1348 19.2017 27.3613 18.9751C27.5957 18.7446 27.8535 18.6236 28.166 18.6236H30.4238C30.7129 18.6236 30.9863 18.7446 31.2129 18.9751C31.4316 19.1782 31.5332 19.4439 31.5332 19.7525V22.0181C31.5332 22.3228 31.4316 22.5923 31.2129 22.815C30.9863 23.022 30.7129 23.1431 30.4238 23.1431L28.166 23.1431ZM19.1504 23.1431C18.8379 23.1431 18.5879 23.022 18.3613 22.8149C18.1348 22.5923 18.0176 22.3228 18.0176 22.0181V19.7525C18.0176 19.4439 18.1348 19.2017 18.3613 18.9751C18.5879 18.7446 18.8379 18.6236 19.1504 18.6236H21.4082C21.7207 18.6236 21.9785 18.7446 22.2051 18.9751C22.416 19.1782 22.541 19.4439 22.541 19.7525V22.0181C22.541 22.3228 22.416 22.5923 22.2051 22.815C21.9785 23.022 21.7207 23.1431 21.4082 23.1431L19.1504 23.1431ZM10.1426 23.1431C9.83789 23.1431 9.57227 23.022 9.34571 22.8149C9.11915 22.5923 9.01759 22.3228 9.01759 22.0181V19.7525C9.01759 19.4439 9.11915 19.2017 9.34572 18.9751C9.57228 18.7446 9.83791 18.6236 10.1426 18.6236H12.3848C12.6973 18.6236 12.9629 18.7446 13.1895 18.9751C13.416 19.1782 13.5176 19.4439 13.5176 19.7525V22.0181C13.5176 22.3228 13.4161 22.5923 13.1895 22.815C12.9629 23.022 12.6973 23.1431 12.3848 23.1431L10.1426 23.1431ZM37.1895 14.1235C36.877 14.1235 36.6113 14.022 36.3926 13.7954C36.1582 13.5728 36.0566 13.3032 36.0566 12.9985V10.7563C36.0566 10.4478 36.1582 10.1821 36.3926 9.95166C36.6113 9.729 36.877 9.62354 37.1895 9.62354H39.4317C39.7363 9.62354 40.002 9.72901 40.2285 9.95167C40.4551 10.1821 40.5567 10.4478 40.5567 10.7564V12.9986C40.5567 13.3032 40.4551 13.5728 40.2285 13.7954C40.002 14.022 39.7364 14.1236 39.4317 14.1236L37.1895 14.1235ZM28.166 14.1235C27.8535 14.1235 27.5957 14.022 27.3613 13.7954C27.1348 13.5728 27.0332 13.3032 27.0332 12.9985V10.7563C27.0332 10.4478 27.1348 10.1821 27.3613 9.95166C27.5957 9.729 27.8535 9.62354 28.166 9.62354H30.4238C30.7129 9.62354 30.9863 9.72901 31.2129 9.95167C31.4316 10.1821 31.5332 10.4478 31.5332 10.7564V12.9986C31.5332 13.3032 31.4316 13.5728 31.2129 13.7954C30.9863 14.022 30.7129 14.1236 30.4238 14.1236L28.166 14.1235ZM19.1504 14.1235C18.8379 14.1235 18.5879 14.022 18.3613 13.7954C18.1348 13.5728 18.0176 13.3032 18.0176 12.9985V10.7563C18.0176 10.4478 18.1348 10.1821 18.3613 9.95166C18.5879 9.729 18.8379 9.62354 19.1504 9.62354H21.4082C21.7207 9.62354 21.9785 9.72901 22.2051 9.95167C22.416 10.1821 22.541 10.4478 22.541 10.7564V12.9986C22.541 13.3032 22.416 13.5728 22.2051 13.7954C21.9785 14.022 21.7207 14.1236 21.4082 14.1236L19.1504 14.1235ZM10.1426 14.1235C9.83789 14.1235 9.57227 14.022 9.34571 13.7954C9.11915 13.5728 9.01759 13.3032 9.01759 12.9985V10.7563C9.01759 10.4478 9.11915 10.1821 9.34572 9.95166C9.57228 9.729 9.83791 9.62354 10.1426 9.62354H12.3848C12.6973 9.62354 12.9629 9.72901 13.1895 9.95167C13.416 10.1821 13.5176 10.4478 13.5176 10.7564V12.9986C13.5176 13.3032 13.4161 13.5728 13.1895 13.7954C12.9629 14.022 12.6973 14.1236 12.3848 14.1236L10.1426 14.1235Z" fill="currentColor"/>
</svg>
