<svg xmlns="http://www.w3.org/2000/svg" xmlns:xlink="http://www.w3.org/1999/xlink" viewBox="0 0 20 20">
  <g transform="translate(4 4)" stroke="none">
    <path id="Path_8093" data-name="Path 8093" d="M18.365,18.027H7.276V6.938a.438.438,0,0,0-.876,0V18.465a.433.433,0,0,0,.438.438H18.365a.438.438,0,1,0,0-.876Z" transform="translate(-6.4 -6.5)"/>
    <path id="Path_8094" data-name="Path 8094" d="M46.976,42.241v-6.3a.438.438,0,1,0-.876,0v6.3a.438.438,0,0,0,.876,0Z" transform="translate(-41.859 -32.402)"/>
    <path id="Path_8095" data-name="Path 8095" d="M27.176,42.241v-6.3a.438.438,0,1,0-.876,0v6.3a.438.438,0,0,0,.876,0Z" transform="translate(-24.174 -32.402)"/>
    <path id="Path_8096" data-name="Path 8096" d="M86.576,42.241v-6.3a.438.438,0,1,0-.876,0v6.3a.438.438,0,0,0,.876,0Z" transform="translate(-77.228 -32.402)"/>
    <path id="Path_8097" data-name="Path 8097" d="M106.376,68.59V65.438a.438.438,0,1,0-.876,0V68.59a.438.438,0,1,0,.876,0Z" transform="translate(-94.913 -58.75)"/>
    <path id="Path_8098" data-name="Path 8098" d="M66.776,68.59V65.438a.438.438,0,1,0-.876,0V68.59a.438.438,0,1,0,.876,0Z" transform="translate(-59.544 -58.75)"/>
  </g>
</svg>
