<svg width="17" height="16" viewBox="0 0 17 16" xmlns="http://www.w3.org/2000/svg">
<path d="M14.0254 15.0083L12.1483 13.1667H4.60457C3.51846 13.1667 2.59763 12.7889 1.84207 12.0333C1.08652 11.2778 0.70874 10.3569 0.70874 9.27084C0.70874 8.36181 0.98924 7.55313 1.55024 6.84479C2.11077 6.13646 2.83374 5.68195 3.71916 5.48125C3.75457 5.38681 3.78999 5.2952 3.82541 5.20642C3.86082 5.11811 3.89624 5.02084 3.93166 4.91459L0.992074 1.975L1.98374 0.983337L15.0171 14.0167L14.0254 15.0083ZM4.60457 11.75H10.7317L5.02957 6.04792C5.00596 6.17778 4.98825 6.30174 4.97645 6.4198C4.96464 6.53785 4.95874 6.66181 4.95874 6.79167H4.60457C3.91985 6.79167 3.33548 7.03368 2.85145 7.51771C2.36742 8.00174 2.12541 8.58611 2.12541 9.27084C2.12541 9.95556 2.36742 10.5399 2.85145 11.024C3.33548 11.508 3.91985 11.75 4.60457 11.75ZM15.3004 12.2813L14.2733 11.2896C14.474 11.1243 14.6247 10.9326 14.7252 10.7144C14.8254 10.4958 14.8754 10.2507 14.8754 9.97917C14.8754 9.48334 14.7042 9.06424 14.3619 8.72188C14.0195 8.37952 13.6004 8.20834 13.1046 8.20834H12.0421V6.79167C12.0421 5.81181 11.6969 4.97645 11.0065 4.28559C10.3156 3.5952 9.48027 3.25 8.50041 3.25C8.18166 3.25 7.87471 3.28825 7.57957 3.36475C7.28443 3.44173 7.0011 3.56285 6.72957 3.72813L5.70249 2.70105C6.11568 2.41771 6.55556 2.20214 7.02212 2.05434C7.4882 1.907 7.98096 1.83334 8.50041 1.83334C9.88166 1.83334 11.0532 2.3143 12.0152 3.27621C12.9775 4.2386 13.4587 5.41042 13.4587 6.79167C14.2733 6.88611 14.9493 7.23721 15.4867 7.84496C16.0236 8.45318 16.2921 9.16459 16.2921 9.97917C16.2921 10.4396 16.2035 10.8674 16.0264 11.2627C15.8494 11.6584 15.6074 11.9979 15.3004 12.2813Z" stroke-width="0px" />
</svg>
