<svg xmlns="http://www.w3.org/2000/svg" viewBox="0 0 13.541 13.54">
  <path d="M13.746,6.3,11.572,5.21l2.174-1.087a.529.529,0,0,0,0-.946L7.505.056a.529.529,0,0,0-.473,0L.791,3.176a.529.529,0,0,0,0,.946L2.965,5.21.791,6.3a.529.529,0,0,0,0,.946L2.965,8.33.791,9.418a.529.529,0,0,0,0,.946l6.241,3.121a.529.529,0,0,0,.473,0l6.241-3.121a.529.529,0,0,0,0-.946L11.572,8.33l2.174-1.087A.529.529,0,0,0,13.746,6.3ZM7.269,1.12l5.058,2.529L7.269,6.179,2.21,3.649Zm5.058,8.77L7.269,12.42,2.21,9.891l1.938-.969,2.884,1.442a.529.529,0,0,0,.473,0l2.884-1.442ZM7.269,9.3,2.21,6.77,4.148,5.8,7.032,7.243a.529.529,0,0,0,.473,0L10.389,5.8l1.938.969Zm0,0" transform="translate(-0.498)" stroke="none"/>
</svg>
