<svg xmlns="http://www.w3.org/2000/svg" width="47.271" height="40.27" viewBox="0 0 47.271 40.27">
  <g transform="translate(-820.979 -365.75)" stroke="none">
    <g transform="translate(820.979 366)">
      <circle cx="20.01" cy="20.01" r="20.01" />
    </g>
    <g transform="translate(829.574 376.546)">
      <path d="M21.249,74.339v-2.1a9.779,9.779,0,0,0-2.03-5.985,10.109,10.109,0,0,0-4.629-3.37A1.986,1.986,0,0,0,12.608,61H9.963a1.986,1.986,0,0,0-1.981,1.887,10.109,10.109,0,0,0-4.629,3.37,9.779,9.779,0,0,0-2.03,5.985v2.1a1.984,1.984,0,0,0,.661,3.854h18.6a1.984,1.984,0,0,0,.661-3.854Zm-18.6-2.1a8.607,8.607,0,0,1,2.689-6.21v2.242a.661.661,0,0,0,1.323,0V64.995A8.6,8.6,0,0,1,7.979,64.3V69.6a.661.661,0,0,0,1.323,0V63.378s0,0,0-.005v-.388a.662.662,0,0,1,.661-.661h2.645a.662.662,0,0,1,.661.661v.388s0,0,0,.006V69.6a.661.661,0,0,0,1.323,0V64.3a8.609,8.609,0,0,1,1.323.691v3.279a.661.661,0,0,0,1.323,0V66.032a8.607,8.607,0,0,1,2.689,6.21v1.984H2.645ZM20.588,76.87H1.984a.661.661,0,1,1,0-1.323h18.6a.661.661,0,0,1,0,1.323Z" transform="translate(0 -61)" fill="#323232"/>
    </g>
    <circle cx="8" cy="8" r="8" transform="translate(851.5 366.5)" stroke="#323232" stroke-width="1.5"/>
    <path d="M2.966,7.117V4.152H0V2.966H2.966V0H4.152V2.966H7.117V4.152H4.152V7.117Z" transform="translate(856 371)" fill="#323232"/>
  </g>
</svg>
