<svg width="16" height="16" viewBox="0 0 16 16" fill="none" xmlns="http://www.w3.org/2000/svg">
<path fill-rule="evenodd" clip-rule="evenodd" d="M9.96046 4.51365C9.96046 4.22997 10.1904 4 10.4741 4C10.8011 4 11.1225 4.06571 11.4353 4.19083C11.7757 4.32699 12.0377 4.52906 12.2755 4.76681C12.5133 5.00457 12.7153 5.26659 12.8515 5.60699C12.9766 5.91978 13.0423 6.24117 13.0423 6.56823C13.0423 6.89527 12.9766 7.21665 12.8515 7.52947C12.717 7.8656 12.5183 8.12529 12.2845 8.3607L11.7787 8.91698C11.7733 8.92299 11.7676 8.92889 11.7619 8.93465L10.1182 10.5783C9.88044 10.8161 9.61843 11.0181 9.27803 11.1543C8.96522 11.2794 8.64383 11.3451 8.31679 11.3451C7.98975 11.3451 7.66837 11.2794 7.35555 11.1543C7.01516 11.0181 6.75314 10.8161 6.51538 10.5783C6.27762 10.3405 6.07555 10.0785 5.93939 9.73814C5.81187 9.41932 5.74857 9.09763 5.74857 8.72554C5.74857 8.3985 5.81428 8.07711 5.93939 7.7643C6.07555 7.42391 6.27762 7.16189 6.51538 6.92413L7.08039 6.35912C7.28097 6.15853 7.60621 6.15853 7.80679 6.35912C8.00737 6.55971 8.00737 6.88495 7.80679 7.08553L7.24178 7.65054C7.06863 7.82369 6.96251 7.97259 6.89322 8.14585C6.81289 8.34668 6.77585 8.53894 6.77585 8.72555C6.77585 8.96983 6.81525 9.16179 6.89322 9.35661C6.96251 9.52987 7.06863 9.67877 7.24178 9.85192C7.41493 10.0251 7.56383 10.1312 7.73709 10.2005C7.93792 10.2808 8.13018 10.3178 8.31679 10.3178C8.50339 10.3178 8.69565 10.2808 8.89649 10.2005C9.06974 10.1312 9.21865 10.0251 9.39179 9.85192L11.0268 8.21688L11.5323 7.66091C11.5377 7.6549 11.5434 7.64899 11.5491 7.64324C11.7223 7.47009 11.8284 7.32119 11.8977 7.14793C11.978 6.9471 12.015 6.75484 12.015 6.56823C12.015 6.38165 11.978 6.18939 11.8977 5.98853C11.8284 5.81528 11.7223 5.66638 11.5491 5.49323C11.376 5.32007 11.2271 5.21395 11.0538 5.14465C10.853 5.06431 10.6607 5.02729 10.4741 5.02729C10.1904 5.02729 9.96046 4.79733 9.96046 4.51365ZM7.44359 5.28411C7.25699 5.28411 7.06473 5.32113 6.86389 5.40147C6.69064 5.47077 6.54175 5.57689 6.36859 5.75005L4.68219 7.43645L4.17677 7.99242C4.17129 7.99843 4.16567 8.00433 4.15991 8.01009C3.98675 8.18324 3.88063 8.33214 3.81134 8.50539C3.73099 8.70623 3.69398 8.89849 3.69398 9.08509C3.69398 9.2717 3.73099 9.46396 3.81134 9.66479C3.88063 9.83805 3.98676 9.98695 4.15991 10.1601C4.33307 10.3332 4.48197 10.4394 4.65521 10.5087C4.85607 10.589 5.04833 10.626 5.23492 10.626C5.51859 10.626 5.74857 10.856 5.74857 11.1397C5.74857 11.4234 5.5186 11.6533 5.23492 11.6533C4.90786 11.6533 4.58647 11.5876 4.27369 11.4625C3.93329 11.3263 3.67127 11.1243 3.43351 10.8865C3.19575 10.6487 2.99368 10.3867 2.85752 10.0463C2.73241 9.73352 2.66669 9.41213 2.66669 9.08509C2.66669 8.75805 2.7324 8.43667 2.85752 8.12385C2.99197 7.78773 3.19069 7.52803 3.42458 7.29262L3.93029 6.73634C3.93577 6.73033 3.9414 6.72443 3.94715 6.71867L5.64219 5.02363C5.87995 4.78587 6.14197 4.58381 6.48237 4.44765C6.79517 4.32253 7.11656 4.25681 7.4436 4.25681C7.77064 4.25681 8.09203 4.32253 8.40484 4.44765C8.74523 4.58381 9.00725 4.78587 9.24501 5.02363C9.48278 5.26139 9.68485 5.52341 9.82101 5.86381C9.94614 6.1766 10.0118 6.49799 10.0118 6.82505C10.0118 7.15209 9.94614 7.47347 9.82101 7.78628C9.68639 8.12277 9.4874 8.38267 9.25318 8.61829L8.69546 9.2267C8.50377 9.43581 8.17883 9.44993 7.96973 9.25829C7.76063 9.06659 7.7465 8.74166 7.93815 8.53255L8.50316 7.91618C8.50819 7.91068 8.51338 7.90529 8.51862 7.90005C8.69177 7.72691 8.79789 7.578 8.86718 7.40475C8.94751 7.20391 8.98455 7.01165 8.98455 6.82505C8.98455 6.63844 8.94751 6.4462 8.86718 6.24534C8.79789 6.07209 8.69177 5.92319 8.51862 5.75004C8.34547 5.57689 8.19657 5.47076 8.02331 5.40147C7.82248 5.32112 7.6302 5.28411 7.44359 5.28411Z" fill="#959595"/>
</svg>
