<svg xmlns="http://www.w3.org/2000/svg" viewBox="0 0 12.541 17.836">
  <path d="M11.844,5.574H9.893V3.623a3.623,3.623,0,1,0-7.246,0V5.574H.7a.7.7,0,0,0-.7.7v8.221a.7.7,0,0,0,.214.5l2.752,2.648a.7.7,0,0,0,.483.195H9.093a.7.7,0,0,0,.483-.195l2.752-2.648a.7.7,0,0,0,.214-.5V6.27a.7.7,0,0,0-.7-.7Zm-7.8-1.951a2.229,2.229,0,1,1,4.459,0V5.574H4.041ZM11.147,14.2,8.812,16.442H3.729L1.393,14.2V6.967h9.754ZM5.574,12.87v.89a.7.7,0,1,0,1.393,0v-.89a2.02,2.02,0,1,0-1.393,0Zm.7-2.524a.627.627,0,1,1-.627.627A.628.628,0,0,1,6.27,10.346Zm0,0" stroke="none" />
</svg>
