<svg xmlns="http://www.w3.org/2000/svg" viewBox="0 0 20 20">
  <g transform="translate(5 3)" stroke="none">
    <path d="M3.766,0,0,3.767V14.155H10.783V0ZM3.524,1.416V3.523H1.416Zm6.43,11.91H.829V4.353H4.353V.829h5.6Zm0,0"/>
    <path d="M68.579,222.336H67.457v2.33h.786v-.572h.336c.649,0,1.062-.339,1.062-.879S69.228,222.336,68.579,222.336Zm-.05,1.152h-.286v-.546h.286c.216,0,.319.1.319.273S68.745,223.488,68.529,223.488Zm0,0" transform="translate(-65.592 -216.189)"/>
    <path d="M156.906,222.336v2.33h1.148a1.173,1.173,0,1,0,0-2.33Zm1.671,1.165a.513.513,0,0,1-.556.553h-.329v-1.105h.329A.513.513,0,0,1,158.577,223.5Zm0,0" transform="translate(-152.568 -216.189)"/>
    <path d="M258.336,223.92h.972v-.592h-.972v-.4h1.108v-.592h-1.894v2.33h.785Zm0,0" transform="translate(-250.43 -216.189)"/>
  </g>
</svg>
