<svg id="sand-clock" 
  xmlns="http://www.w3.org/2000/svg" viewBox="0 0 8.618 13.896">
  <path d="M30.5,194.172l-3.082-2.344L24.4,194.17a1.022,1.022,0,0,0-.4.812v1.294h6.91V194.99A1.037,1.037,0,0,0,30.5,194.172Zm0,0" transform="translate(-23.089 -184.545)" stroke="none"/>
  <path d="M.058,0h8.5a.058.058,0,0,1,.058.058V1.575a.058.058,0,0,1-.058.058H.058A.058.058,0,0,1,0,1.575V.058A.058.058,0,0,1,.058,0Zm0,0" stroke="none"/>
  <path d="M.058,323h8.5a.058.058,0,0,1,.058.058v1.517a.058.058,0,0,1-.058.058H.058A.058.058,0,0,1,0,324.575v-1.517A.058.058,0,0,1,.058,323Zm0,0" transform="translate(0 -310.737)" stroke="none"/>
  <path d="M23,58.189a1.024,1.024,0,0,0,.388.8l3.067,2.452,3.068-2.452a1.025,1.025,0,0,0,.388-.8V57H23Zm0,0" transform="translate(-22.127 -54.836)" stroke="none"/>
</svg>
