<svg xmlns="http://www.w3.org/2000/svg" viewBox="0 0 20 20">
  <g transform="translate(16.803 -2.85) rotate(90)" stroke="none">
    <g transform="translate(6.85)">
      <path d="M174.336,6.24V.36a.36.36,0,1,0-.72,0V6.24a1.827,1.827,0,0,0,0,3.582V12.44a.36.36,0,1,0,.72,0V9.823a1.827,1.827,0,0,0,0-3.582Zm-.36,2.9a1.106,1.106,0,1,1,1.106-1.106A1.107,1.107,0,0,1,173.976,9.137Z" transform="translate(-167.744)"/>
      <path d="M9.036,3.223V.36a.36.36,0,0,0-.72,0V3.223a1.827,1.827,0,0,0,0,3.582V12.44a.36.36,0,0,0,.72,0V6.8a1.826,1.826,0,0,0,0-3.58Zm-.36,2.9A1.106,1.106,0,1,1,9.782,5.014,1.107,1.107,0,0,1,8.676,6.12Z" transform="translate(-6.85)"/>
      <path d="M338.636,3.223V.36a.36.36,0,1,0-.72,0V3.223a1.827,1.827,0,0,0,0,3.582v5.638a.36.36,0,1,0,.72,0V6.8a1.826,1.826,0,0,0,0-3.58Zm-.36,2.9a1.106,1.106,0,1,1,1.106-1.106A1.107,1.107,0,0,1,338.276,6.12Z" transform="translate(-327.664)"/>
    </g>
  </g>
</svg>
