<svg xmlns="http://www.w3.org/2000/svg" viewBox="0 0 28.022 19.313">
  <g transform="translate(0 -0.496)" stroke="none">
    <path d="M23.918,4.6A14.011,14.011,0,0,0,0,14.507a13.963,13.963,0,0,0,.827,4.754A.828.828,0,1,0,2.386,18.7a12.234,12.234,0,0,1-.7-3.363H4.233a.828.828,0,1,0,0-1.657H1.685A12.264,12.264,0,0,1,2.924,9.062l2.2,1.273A.828.828,0,0,0,5.957,8.9l-2.2-1.272A12.456,12.456,0,0,1,7.132,4.25L8.4,6.453a.828.828,0,1,0,1.435-.828L8.566,3.42a12.259,12.259,0,0,1,4.616-1.238V4.729a.829.829,0,0,0,1.657,0V2.182A12.264,12.264,0,0,1,19.456,3.42L18.183,5.625a.828.828,0,1,0,1.435.828l1.272-2.2a12.453,12.453,0,0,1,3.379,3.379L22.065,8.9a.828.828,0,1,0,.828,1.435l2.2-1.273a12.262,12.262,0,0,1,1.238,4.616H23.789a.828.828,0,1,0,0,1.657h2.547a12.218,12.218,0,0,1-.638,3.185.829.829,0,1,0,1.567.538A14.031,14.031,0,0,0,23.918,4.6Zm0,0"/>
    <path d="M219.9,145.4l-3.533,3.806a2.329,2.329,0,1,0,1.061,1.292l3.686-3.972A.828.828,0,1,0,219.9,145.4Zm-4.68,6.5a.67.67,0,1,1,.67-.67A.671.671,0,0,1,215.218,151.9Zm0,0" transform="translate(-201.239 -136.726)"/>
  </g>
</svg>
