<svg width="14" height="14" viewBox="-1 -1 16 16" xmlns="http://www.w3.org/2000/svg">
<path d="M0.333252 13.6667V12H2.62492L2.29159 11.7083C1.56936 11.0695 1.06242 10.3403 0.770752 9.52084C0.479085 8.7014 0.333252 7.87501 0.333252 7.04168C0.333252 5.50001 0.794919 4.12834 1.71825 2.92668C2.64214 1.72557 3.84714 0.930566 5.33325 0.541677V2.29168C4.33325 2.65279 3.5277 3.26723 2.91659 4.13501C2.30547 5.00334 1.99992 5.97223 1.99992 7.04168C1.99992 7.66668 2.11797 8.27418 2.35409 8.86418C2.5902 9.45473 2.95825 10 3.45825 10.5L3.66659 10.7083V8.66668H5.33325V13.6667H0.333252ZM8.66658 13.4583V11.7083C9.66658 11.3472 10.4721 10.7328 11.0833 9.86501C11.6944 8.99668 11.9999 8.02779 11.9999 6.95834C11.9999 6.33334 11.8819 5.72557 11.6458 5.13501C11.4096 4.54501 11.0416 4.00001 10.5416 3.50001L10.3333 3.29168V5.33334H8.66658V0.333344H13.6666V2.00001H11.3749L11.7083 2.29168C12.3888 2.97223 12.8855 3.71168 13.1983 4.51001C13.5105 5.3089 13.6666 6.12501 13.6666 6.95834C13.6666 8.50001 13.2046 9.8714 12.2808 11.0725C11.3574 12.2742 10.1527 13.0695 8.66658 13.4583Z" stroke-width="0" />
</svg>
