<svg xmlns="http://www.w3.org/2000/svg" viewBox="0 0 14.932 17.464">
  <g transform="translate(-35.822 0.25)" stroke="none">
    <g transform="translate(36.073)">
      <path d="M140.687,9.141h.112a3.242,3.242,0,0,0,2.477-1.071c1.352-1.525,1.128-4.138,1.1-4.388A3.584,3.584,0,0,0,142.675.5a3.906,3.906,0,0,0-1.89-.5h-.06a3.912,3.912,0,0,0-1.89.481,3.586,3.586,0,0,0-1.725,3.2c-.025.249-.249,2.863,1.1,4.388A3.229,3.229,0,0,0,140.687,9.141Zm-2.638-5.371c0-.011,0-.021,0-.028.116-2.519,1.9-2.789,2.67-2.789h.042a2.568,2.568,0,0,1,2.67,2.789.068.068,0,0,0,0,.028c0,.025.249,2.413-.868,3.671a2.3,2.3,0,0,1-1.809.752h-.035a2.3,2.3,0,0,1-1.806-.752C137.806,6.19,138.045,3.79,138.048,3.769Z" transform="translate(-133.533)" stroke-width="0.5"/>
      <path d="M50.5,263.613V263.6c0-.028,0-.056,0-.088-.021-.7-.067-2.322-1.591-2.842l-.035-.011a10.136,10.136,0,0,1-2.916-1.328.474.474,0,1,0-.545.776,10.942,10.942,0,0,0,3.207,1.465c.819.292.91,1.166.934,1.967a.706.706,0,0,0,0,.088,6.376,6.376,0,0,1-.074,1.086,12.928,12.928,0,0,1-6.193,1.44,13,13,0,0,1-6.2-1.444,6.037,6.037,0,0,1-.074-1.086c0-.028,0-.056,0-.088.025-.8.116-1.676.934-1.967a11.044,11.044,0,0,0,3.207-1.465.474.474,0,1,0-.545-.776,10.026,10.026,0,0,1-2.916,1.328l-.035.011c-1.525.523-1.57,2.15-1.591,2.842a.705.705,0,0,1,0,.088v.011a5.387,5.387,0,0,0,.179,1.591.451.451,0,0,0,.183.221,13.287,13.287,0,0,0,6.857,1.679,13.328,13.328,0,0,0,6.857-1.679.47.47,0,0,0,.183-.221A5.652,5.652,0,0,0,50.5,263.613Z" transform="translate(-36.073 -250.137)" stroke-width="0.5"/>
    </g>
  </g>
</svg>
